<?xml version="1.0" encoding="UTF-8"?>
<svg version="1.1" xmlns="http://www.w3.org/2000/svg" width="187" height="100">
<path d="M0 0 C61.71 0 123.42 0 187 0 C187 33 187 66 187 100 C125.29 100 63.58 100 0 100 C0 67 0 34 0 0 Z " fill="#FDFDFD" transform="translate(0,0)"/>
<path d="M0 0 C1.01394333 0.0028299 2.02788666 0.00565979 3.07255554 0.00857544 C6.30239802 0.01974625 9.53196046 0.04484539 12.76171875 0.0703125 C14.95507411 0.0803463 17.14843383 0.08947145 19.34179688 0.09765625 C24.71103261 0.11967543 30.08010567 0.15312227 35.44921875 0.1953125 C34.7175208 4.60767285 33.56046516 6.90628058 30.44921875 10.1953125 C26.71160737 12.770635 22.662574 12.52563225 18.2890625 12.57421875 C17.50277969 12.59121323 16.71649689 12.6082077 15.90638733 12.62571716 C13.39991226 12.67873603 10.89345225 12.71909197 8.38671875 12.7578125 C5.87649854 12.80179242 3.36640386 12.84853131 0.8563385 12.90061951 C-0.70391895 12.93248273 -2.26428692 12.95940183 -3.82472229 12.98085022 C-6.98403224 13.04107915 -9.53226823 13.18914149 -12.55078125 14.1953125 C-12.66398981 19.27834936 -12.66398981 19.27834936 -11.55078125 24.1953125 C-10.59300781 24.2046582 -9.63523438 24.21400391 -8.6484375 24.22363281 C-5.06220629 24.26379587 -1.47680946 24.32962375 2.10888672 24.40283203 C3.65467532 24.43089037 5.20060336 24.45217956 6.74658203 24.46630859 C22.7450946 24.62123286 22.7450946 24.62123286 29.44921875 29.1953125 C33.57855417 33.43331464 35.24774165 37.14696201 35.82421875 43.0078125 C35.65270771 47.80109462 34.27594008 51.34193432 31.44921875 55.1953125 C25.09997323 61.02572942 19.46158248 62.04020473 11.0703125 61.78125 C9.49129906 61.76851547 9.49129906 61.76851547 7.88038635 61.75552368 C4.54808245 61.72217974 1.21827991 61.64693335 -2.11328125 61.5703125 C-4.38473045 61.54018847 -6.65621793 61.51281696 -8.92773438 61.48828125 C-14.46970044 61.42245022 -20.00981812 61.31905846 -25.55078125 61.1953125 C-25.55078125 57.2353125 -25.55078125 53.2753125 -25.55078125 49.1953125 C-23.47627686 49.1655835 -23.47627686 49.1655835 -21.35986328 49.13525391 C-16.24216097 49.05933966 -11.12474829 48.97060087 -6.00732422 48.87792969 C-3.78993435 48.83958116 -1.57248101 48.80473879 0.64501953 48.7734375 C3.82737964 48.72791424 7.00930057 48.66989931 10.19140625 48.609375 C11.18727753 48.59782379 12.1831488 48.58627258 13.209198 48.57437134 C14.13000153 48.55450165 15.05080505 48.53463196 15.99951172 48.51416016 C16.81225555 48.50083649 17.62499939 48.48751282 18.46237183 48.4737854 C20.67961933 48.36632169 20.67961933 48.36632169 22.44921875 46.1953125 C22.73524037 42.05021817 22.73524037 42.05021817 21.44921875 38.1953125 C20.14887695 38.17343872 20.14887695 38.17343872 18.82226562 38.15112305 C15.57158268 38.08966238 12.32149898 38.01543627 9.07128906 37.93286133 C7.67100805 37.89983583 6.27060106 37.87173595 4.87011719 37.84887695 C-14.21715321 37.52894054 -14.21715321 37.52894054 -21.55078125 30.1953125 C-25.28762606 24.91218709 -25.22071518 19.42941989 -24.55078125 13.1953125 C-22.61388101 7.38461179 -18.82973536 4.01271578 -13.51489258 1.06689453 C-9.0258485 -0.25308631 -4.65343156 -0.04899632 0 0 Z " fill="#72955E" transform="translate(140.55078125,7.8046875)"/>
<path d="M0 0 C6.24385004 -0.09938176 12.48723272 -0.17171075 18.73168945 -0.21972656 C20.85286487 -0.23975746 22.97398565 -0.26699025 25.0949707 -0.30175781 C28.15589941 -0.35065214 31.21609376 -0.37305452 34.27734375 -0.390625 C35.21521225 -0.41127014 36.15308075 -0.43191528 37.11936951 -0.45318604 C43.96215939 -0.45548247 50.4538906 0.68851875 55.62608337 5.51849365 C60.0650146 10.70888953 60.35716614 14.29287341 60.26953125 20.953125 C59.81805433 26.05677717 58.27214092 28.66345974 54.65625 32.38183594 C47.44236328 38.00067105 38.13885278 36.53467546 29.5 36.3125 C27.80211613 36.28738817 26.10419654 36.26458008 24.40625 36.24414062 C20.26922435 36.19363982 16.13720718 36.09576868 12 36 C12 44.25 12 52.5 12 61 C8.04 61 4.08 61 0 61 C0 49.12 0 37.24 0 25 C3.21363281 24.96261719 6.42726563 24.92523438 9.73828125 24.88671875 C12.84601707 24.84052566 15.95363138 24.7892839 19.0612793 24.73754883 C21.22331375 24.70426678 23.38543577 24.67624515 25.54760742 24.65356445 C28.65321218 24.62007892 31.75801198 24.567766 34.86328125 24.51171875 C35.83211746 24.50532883 36.80095367 24.4989389 37.79914856 24.49235535 C39.15020943 24.46266411 39.15020943 24.46266411 40.52856445 24.43237305 C41.71770195 24.41571846 41.71770195 24.41571846 42.93086243 24.39872742 C45.54319439 23.89532523 46.46600264 23.15672813 48 21 C47.92421045 17.38537214 47.92421045 17.38537214 47 14 C43.94590769 12.47295384 40.74631293 12.84325289 37.39453125 12.82421875 C35.83787731 12.80100673 34.28123666 12.77688885 32.72460938 12.75195312 C30.27359299 12.7169491 27.8230612 12.6875581 25.37182617 12.67407227 C23.00379629 12.65849785 20.6371822 12.61821794 18.26953125 12.57421875 C17.1847625 12.57708138 17.1847625 12.57708138 16.07807922 12.58000183 C10.67784945 12.45163305 7.44897736 11.09486471 3 8 C0 3.16129032 0 3.16129032 0 0 Z " fill="#70935C" transform="translate(11,8)"/>
<path d="M0 0 C20.13 0 40.26 0 61 0 C59.35 1.65 57.7 3.3 56 5 C55.32300211 6.25450863 54.67178153 7.52374321 54.0625 8.8125 C53.051875 9.864375 52.04125 10.91625 51 12 C46.38 12 41.76 12 37 12 C37 28.17 37 44.34 37 61 C32.71 61 28.42 61 24 61 C24 44.83 24 28.66 24 12 C19.38 12 14.76 12 10 12 C6.85327313 8.75934099 5.17398307 6.69130849 3 3 C2.01 2.01 1.02 1.02 0 0 Z " fill="#434343" transform="translate(63,8)"/>
<path d="M0 0 C2.0625 -0.04125 4.125 -0.0825 6.25 -0.125 C7.99023438 -0.15980469 7.99023438 -0.15980469 9.765625 -0.1953125 C12.82786046 -0.0103949 14.44202751 0.39176977 17 2 C16.690625 3.423125 16.690625 3.423125 16.375 4.875 C16.25125 5.90625 16.1275 6.9375 16 8 C16.66 8.66 17.32 9.32 18 10 C17.8125 12 17.8125 12 17 14 C13.2632157 16.49118953 11.25548181 16.2065226 6.8125 16.125 C4.564375 16.08375 2.31625 16.0425 0 16 C0 10.72 0 5.44 0 0 Z " fill="#676767" transform="translate(11,76)"/>
<path d="M0 0 C1.876875 -0.04125 3.75375 -0.0825 5.6875 -0.125 C6.74324219 -0.14820312 7.79898438 -0.17140625 8.88671875 -0.1953125 C12.0649021 0.00407165 14.20027543 0.49869842 17 2 C17.8125 4.625 17.8125 4.625 18 7 C16.68 7.99 15.36 8.98 14 10 C15.98 12.97 15.98 12.97 18 16 C16.68 16 15.36 16 14 16 C13.566875 15.195625 13.13375 14.39125 12.6875 13.5625 C11.15327049 10.58444169 11.15327049 10.58444169 7.3125 10.1875 C6.219375 10.125625 5.12625 10.06375 4 10 C4 11.98 4 13.96 4 16 C2.68 16 1.36 16 0 16 C0 10.72 0 5.44 0 0 Z " fill="#616161" transform="translate(124,76)"/>
<path d="M0 0 C0.75925781 0.09539062 1.51851562 0.19078125 2.30078125 0.2890625 C3.63936649 2.57780423 4.97179139 4.86975906 6.30078125 7.1640625 C6.68234375 7.81503906 7.06390625 8.46601562 7.45703125 9.13671875 C10.30078125 14.0625 10.30078125 14.0625 10.30078125 16.2890625 C8.98078125 16.2890625 7.66078125 16.2890625 6.30078125 16.2890625 C5.97078125 14.9690625 5.64078125 13.6490625 5.30078125 12.2890625 C3.50819567 12.37599391 1.71662981 12.48416754 -0.07421875 12.6015625 C-1.57082031 12.68857422 -1.57082031 12.68857422 -3.09765625 12.77734375 C-3.95617187 12.94621094 -4.8146875 13.11507812 -5.69921875 13.2890625 C-6.68921875 14.7740625 -6.68921875 14.7740625 -7.69921875 16.2890625 C-8.68921875 16.2890625 -9.67921875 16.2890625 -10.69921875 16.2890625 C-9.62031771 12.18923855 -7.92748128 8.60737052 -5.88671875 4.9140625 C-5.40589844 4.04007812 -4.92507812 3.16609375 -4.4296875 2.265625 C-2.69921875 0.2890625 -2.69921875 0.2890625 0 0 Z " fill="#5A5A5A" transform="translate(165.69921875,75.7109375)"/>
<path d="M0 0 C1.65 0 3.3 0 5 0 C6.33858524 2.28874173 7.67101014 4.58069656 9 6.875 C9.3815625 7.52597656 9.763125 8.17695312 10.15625 8.84765625 C13 13.7734375 13 13.7734375 13 16 C11.68 16 10.36 16 9 16 C8.67 14.68 8.34 13.36 8 12 C6.20741442 12.08693141 4.41584856 12.19510504 2.625 12.3125 C1.12839844 12.39951172 1.12839844 12.39951172 -0.3984375 12.48828125 C-1.25695312 12.65714844 -2.11546875 12.82601562 -3 13 C-3.99 14.485 -3.99 14.485 -5 16 C-5.99 16 -6.98 16 -8 16 C-6.57250019 12.20950293 -4.83763458 8.72877544 -2.875 5.1875 C-2.33617188 4.21167969 -1.79734375 3.23585938 -1.2421875 2.23046875 C-0.83226563 1.49441406 -0.42234375 0.75835937 0 0 Z " fill="#5B5B5B" transform="translate(107,76)"/>
<path d="M0 0 C1.31677734 -0.02126953 1.31677734 -0.02126953 2.66015625 -0.04296875 C4.9375 0.1875 4.9375 0.1875 6.9375 2.1875 C5.69033203 2.24357422 5.69033203 2.24357422 4.41796875 2.30078125 C3.33128906 2.36652344 2.24460937 2.43226562 1.125 2.5 C-0.49341797 2.58701172 -0.49341797 2.58701172 -2.14453125 2.67578125 C-5.04896051 2.96441252 -5.04896051 2.96441252 -6.9609375 4.5703125 C-8.32737454 6.21617005 -8.32737454 6.21617005 -7.875 8.75 C-7.21622967 11.33191272 -7.21622967 11.33191272 -5.0625 13.1875 C-2.62997339 13.64912427 -2.62997339 13.64912427 0.0625 13.8125 C0.97257812 13.88726562 1.88265625 13.96203125 2.8203125 14.0390625 C3.86832031 14.11253906 3.86832031 14.11253906 4.9375 14.1875 C4.9375 12.5375 4.9375 10.8875 4.9375 9.1875 C3.2875 9.1875 1.6375 9.1875 -0.0625 9.1875 C-0.0625 8.8575 -0.0625 8.5275 -0.0625 8.1875 C2.5775 8.1875 5.2175 8.1875 7.9375 8.1875 C7.9375 10.4975 7.9375 12.8075 7.9375 15.1875 C3.42271373 17.44489314 -3.42334623 17.0507746 -8.15234375 15.50390625 C-10.95886391 13.85018655 -12.03995774 12.24326244 -13.25 9.25 C-13.0625 6.1875 -13.0625 6.1875 -10.8125 3.375 C-7.14160424 0.45496928 -4.56042551 0.03358193 0 0 Z " fill="#5B5B5B" transform="translate(88.0625,75.8125)"/>
<path d="M0 0 C0.99 0 1.98 0 3 0 C3.06058594 0.85464844 3.12117188 1.70929688 3.18359375 2.58984375 C3.26738281 3.69457031 3.35117187 4.79929687 3.4375 5.9375 C3.51871094 7.03964844 3.59992187 8.14179687 3.68359375 9.27734375 C3.70418084 11.91109903 3.70418084 11.91109903 5 13 C6.87321948 13.16053815 6.87321948 13.16053815 9 13.125 C9.721875 13.12757812 10.44375 13.13015625 11.1875 13.1328125 C13.02089415 13.19695276 13.02089415 13.19695276 14 12 C14.23427778 9.98405418 14.41336124 7.961526 14.5625 5.9375 C14.64628906 4.83277344 14.73007812 3.72804688 14.81640625 2.58984375 C14.87699219 1.73519531 14.93757813 0.88054687 15 0 C15.99 0 16.98 0 18 0 C18.1080023 2.10304477 18.18558987 4.20766909 18.25 6.3125 C18.29640625 7.48425781 18.3428125 8.65601562 18.390625 9.86328125 C18 13 18 13 16.296875 14.89453125 C13.66930962 16.15915881 11.90757271 16.40159365 9 16.375 C8.154375 16.38273437 7.30875 16.39046875 6.4375 16.3984375 C3.38923377 15.90016321 2.07392309 15.3070016 0 13 C-0.390625 9.86328125 -0.390625 9.86328125 -0.25 6.3125 C-0.21390625 5.13300781 -0.1778125 3.95351562 -0.140625 2.73828125 C-0.09421875 1.83464844 -0.0478125 0.93101563 0 0 Z " fill="#505050" transform="translate(34,76)"/>
<path d="M0 0 C1.32 0 2.64 0 4 0 C4 4.62 4 9.24 4 14 C7.63 14 11.26 14 15 14 C15 14.66 15 15.32 15 16 C10.05 16 5.1 16 0 16 C0 10.72 0 5.44 0 0 Z " fill="#5C5C5C" transform="translate(58,76)"/>
<path d="M0 0 C1.32 0 2.64 0 4 0 C4 5.28 4 10.56 4 16 C2.68 16 1.36 16 0 16 C0 10.72 0 5.44 0 0 Z " fill="#5A5A5A" transform="translate(147,76)"/>
<path d="M0 0 C7.75 -0.125 7.75 -0.125 10 1 C9.67 2.65 9.34 4.3 9 6 C6.03 6 3.06 6 0 6 C0 4.02 0 2.04 0 0 Z " fill="#FBFBFB" transform="translate(128,78)"/>
<path d="M0 0 C1.45823212 -0.0270043 2.91660675 -0.04639787 4.375 -0.0625 C5.18710937 -0.07410156 5.99921875 -0.08570312 6.8359375 -0.09765625 C9 0 9 0 11 1 C11 1.99 11 2.98 11 4 C8.59454362 5.20272819 7.05003047 5.10071472 4.375 5.0625 C3.14910156 5.04896484 3.14910156 5.04896484 1.8984375 5.03515625 C0.95871094 5.01775391 0.95871094 5.01775391 0 5 C0 3.35 0 1.7 0 0 Z " fill="#F2F2F2" transform="translate(14,78)"/>
<path d="M0 0 C0.99 0 1.98 0 3 0 C3.03738281 0.83144531 3.07476562 1.66289063 3.11328125 2.51953125 C3.17902344 3.60621094 3.24476562 4.69289063 3.3125 5.8125 C3.37050781 6.89144531 3.42851563 7.97039062 3.48828125 9.08203125 C4.03068507 12.17497517 4.55289624 13.13022903 7 15 C4.625 15.125 4.625 15.125 2 15 C0 13 0 13 -0.1953125 9.9609375 C-0.17210937 8.77757813 -0.14890625 7.59421875 -0.125 6.375 C-0.10695312 5.18648438 -0.08890625 3.99796875 -0.0703125 2.7734375 C-0.04710937 1.85820313 -0.02390625 0.94296875 0 0 Z " fill="#444444" transform="translate(34,76)"/>
<path d="M0 0 C2.97 0 5.94 0 9 0 C9.33 1.32 9.66 2.64 10 4 C9 5 9 5 6.93359375 5.09765625 C6.10988281 5.08605469 5.28617188 5.07445313 4.4375 5.0625 C3.61121094 5.05347656 2.78492188 5.04445313 1.93359375 5.03515625 C1.29550781 5.02355469 0.65742188 5.01195313 0 5 C0 3.35 0 1.7 0 0 Z " fill="#FEFEFE" transform="translate(15,85)"/>
<path d="M0 0 C0.66 0.33 1.32 0.66 2 1 C0.93282878 3.15532614 -0.15217471 5.29786091 -1.25 7.4375 C-1.70052734 8.35499023 -1.70052734 8.35499023 -2.16015625 9.29101562 C-4.49991386 13.79629358 -4.49991386 13.79629358 -7.234375 14.91015625 C-8.10835938 14.95462891 -8.10835938 14.95462891 -9 15 C-7.82625725 11.87001934 -6.49711639 8.83014137 -5.0625 5.8125 C-4.58490234 4.80123047 -4.58490234 4.80123047 -4.09765625 3.76953125 C-3 2 -3 2 0 0 Z " fill="#4C4C4C" transform="translate(108,77)"/>
<path d="M0 0 C0.66 0.33 1.32 0.66 2 1 C-0.64 5.62 -3.28 10.24 -6 15 C-6.99 15 -7.98 15 -9 15 C-7.27277012 9.09863124 -5.25528174 3.50352116 0 0 Z " fill="#4C4C4C" transform="translate(164,77)"/>
<path d="M0 0 C1.32 0.33 2.64 0.66 4 1 C3.67 5.62 3.34 10.24 3 15 C2.01 15 1.02 15 0 15 C0 10.05 0 5.1 0 0 Z " fill="#404040" transform="translate(124,77)"/>
<path d="M0 0 C1.32 0.33 2.64 0.66 4 1 C3.67 5.29 3.34 9.58 3 14 C2.01 14 1.02 14 0 14 C0 9.38 0 4.76 0 0 Z " fill="#3D3D3D" transform="translate(11,77)"/>
<path d="M0 0 C2.15377564 2.62198774 3.40072174 4.64404172 4 8 C1.36 8 -1.28 8 -4 8 C-2.68 5.36 -1.36 2.72 0 0 Z " fill="#ECECEC" transform="translate(165,78)"/>
<path d="M0 0 C2.15377564 2.62198774 3.40072174 4.64404172 4 8 C1.69 8 -0.62 8 -3 8 C-1.125 2.25 -1.125 2.25 0 0 Z " fill="#F4F4F4" transform="translate(109,78)"/>
<path d="M0 0 C2.5625 -0.5 2.5625 -0.5 6 0 C8.77504907 2.33430598 11.13473302 4.88327594 13 8 C12.67 8.99 12.34 9.98 12 11 C11.443125 10.2575 10.88625 9.515 10.3125 8.75 C7.27080802 5.13285278 3.91639631 2.61093087 0 0 Z " fill="#E9ECE7" transform="translate(59,9)"/>
<path d="M0 0 C2.64 0 5.28 0 8 0 C8 2.31 8 4.62 8 7 C6.35 7 4.7 7 3 7 C3.66 6.67 4.32 6.34 5 6 C5 4.35 5 2.7 5 1 C3.35 1 1.7 1 0 1 C0 0.67 0 0.34 0 0 Z " fill="#434343" transform="translate(88,84)"/>
</svg>
