<?xml version="1.0" encoding="UTF-8"?>
<svg version="1.1" xmlns="http://www.w3.org/2000/svg" width="331" height="223">
<path d="M0 0 C109.23 0 218.46 0 331 0 C331 73.59 331 147.18 331 223 C221.77 223 112.54 223 0 223 C0 149.41 0 75.82 0 0 Z " fill="#FCFCFC" transform="translate(0,0)"/>
<path d="M0 0 C98.67 0 197.34 0 299 0 C299 16.83 299 33.66 299 51 C200.33 51 101.66 51 0 51 C0 34.17 0 17.34 0 0 Z " fill="#84A37C" transform="translate(13,169)"/>
<path d="M0 0 C1.82416432 0.00560433 3.64833319 0.00987047 5.47250366 0.01286316 C10.24335483 0.0242461 15.01392631 0.05365595 19.78466797 0.0869751 C24.66500059 0.11781818 29.54537898 0.13139876 34.42578125 0.14648438 C43.97928867 0.1785327 53.53258971 0.22964861 63.0859375 0.29296875 C61.91767325 8.93072061 59.77931729 14.36825319 53.0625 20.06640625 C48.50161062 22.89668148 44.0025818 23.54222272 38.71679688 23.54833984 C37.47530884 23.55529877 36.2338208 23.56225769 34.95471191 23.56942749 C34.29896683 23.56874645 33.64322174 23.56806541 32.96760559 23.56736374 C30.89857882 23.56639163 28.83006185 23.57941928 26.7611084 23.59634399 C20.88260772 23.64241784 15.00416359 23.66722269 9.12548828 23.67382812 C5.51976384 23.67885476 1.91457796 23.70315542 -1.69096375 23.73915482 C-3.05918641 23.74892004 -4.42748342 23.75130267 -5.79573059 23.74598312 C-15.73670624 23.4575268 -15.73670624 23.4575268 -23.9140625 28.29296875 C-25.15333927 31.26616924 -25.17662244 34.09658684 -24.9140625 37.29296875 C-23.56319569 40.31633733 -22.23820856 41.96882269 -19.9140625 44.29296875 C-17.65463116 44.59636714 -17.65463116 44.59636714 -15.01220703 44.54833984 C-13.47888229 44.55877823 -13.47888229 44.55877823 -11.9145813 44.56942749 C-10.80323822 44.56843048 -9.69189514 44.56743347 -8.546875 44.56640625 C-6.19270377 44.58671707 -3.83853715 44.60756822 -1.484375 44.62890625 C2.2259508 44.65139307 5.93609385 44.66792925 9.64648438 44.67382812 C13.22820178 44.68343058 16.80909493 44.71732719 20.390625 44.75390625 C21.48172577 44.74886078 22.57282654 44.74381531 23.69699097 44.73861694 C34.66886725 44.87671832 45.04265771 47.49237412 53.0859375 55.29296875 C60.34903028 63.05393482 63.77806478 70.70095228 63.43359375 81.39453125 C62.2161972 91.54406201 58.06885606 99.57230906 50.7109375 106.54296875 C43.11577272 111.60641193 36.94952649 113.44850992 27.82910156 113.40649414 C26.58464516 113.40671318 26.58464516 113.40671318 25.31504822 113.40693665 C22.5771929 113.40624087 19.83940591 113.39846414 17.1015625 113.390625 C15.20155881 113.38875963 13.30155464 113.38733629 11.40155029 113.38633728 C6.40385609 113.38252148 1.40619101 113.37269916 -3.5914917 113.3616333 C-8.69250088 113.35139906 -13.79351476 113.34683534 -18.89453125 113.34179688 C-28.90105651 113.33107607 -38.90755253 113.31348683 -48.9140625 113.29296875 C-48.9140625 106.03296875 -48.9140625 98.77296875 -48.9140625 91.29296875 C-46.48651611 91.27838623 -44.05896973 91.26380371 -41.55786133 91.2487793 C-33.53506527 91.19843049 -25.51246324 91.13183487 -17.48985767 91.05725384 C-12.62598644 91.01253631 -7.76219923 90.97328319 -2.89819336 90.9465332 C1.79631504 90.92051407 6.49050032 90.88012144 11.18480873 90.82978249 C12.97530408 90.81310438 14.76585532 90.80159598 16.55641747 90.79535484 C19.06554368 90.78572397 21.57384149 90.75767747 24.08276367 90.7253418 C24.82219711 90.72677689 25.56163055 90.72821198 26.32347107 90.72969055 C30.7447502 90.64916607 33.54769568 89.97566325 37.0859375 87.29296875 C39.41025924 84.30455508 39.55710394 80.99594256 39.48046875 77.26171875 C38.80800108 73.90603849 36.68311064 72.33360479 34.0859375 70.29296875 C31.55425354 69.02712677 29.78676578 69.16155201 26.95288086 69.15112305 C25.88093979 69.14408859 24.80899872 69.13705414 23.70457458 69.12980652 C22.54007278 69.12564224 21.37557098 69.12147797 20.17578125 69.1171875 C17.71678842 69.09397784 15.25780403 69.06986005 12.79882812 69.04492188 C8.91701716 69.00988438 5.03551388 68.98051065 1.15356445 68.96704102 C-2.58941193 68.95150603 -6.33148326 68.91124474 -10.07421875 68.8671875 C-11.22455093 68.86909592 -12.37488312 68.87100433 -13.56007385 68.87297058 C-23.21307203 68.72746228 -31.77780607 66.05190587 -38.9140625 59.29296875 C-47.28849371 49.26411834 -48.76765552 40.17946983 -47.9140625 27.29296875 C-46.60726226 19.21456727 -41.97240535 12.74896016 -35.80859375 7.5 C-24.71264531 -0.45373295 -13.08834738 -0.11870252 0 0 Z " fill="#809F77" transform="translate(248.9140625,4.70703125)"/>
<path d="M0 0 C10.38833778 -0.06972357 20.77661924 -0.12292438 31.16514397 -0.15543652 C35.98973777 -0.17104617 40.81417066 -0.19219796 45.63867188 -0.22631836 C50.30062553 -0.25908023 54.96242506 -0.27688831 59.62448502 -0.28463173 C61.39695789 -0.29014517 63.16942299 -0.30091111 64.94182968 -0.31719017 C78.96411457 -0.44077785 90.78443856 0.32514752 101.53125 10.44140625 C108.88543346 18.67002007 110.62118496 27.86282792 110.41796875 38.54296875 C109.90029422 47.30979632 104.82823044 55.6545926 98.359375 61.4765625 C97.82828125 61.85554688 97.2971875 62.23453125 96.75 62.625 C96.22921875 63.00914063 95.7084375 63.39328125 95.171875 63.7890625 C86.96880981 68.36271395 79.66039979 68.40197668 70.4375 68.29296875 C69.03646298 68.28736387 67.63542003 68.28309799 66.234375 68.28010559 C62.57150646 68.26872681 58.90900266 68.23932118 55.24627686 68.20599365 C51.49887106 68.17514117 47.75140378 68.1614029 44.00390625 68.14648438 C36.66895018 68.11604045 29.33499176 68.05730462 22 68 C22 82.85 22 97.7 22 113 C14.41 113 6.82 113 -1 113 C-1 90.56 -1 68.12 -1 45 C4.95675781 44.93941406 10.91351563 44.87882812 17.05078125 44.81640625 C20.81966886 44.77592157 24.58854911 44.73515326 28.35742188 44.69335938 C34.34234136 44.62701839 40.32725946 44.56173998 46.31225586 44.50268555 C51.13631012 44.45502063 55.96029281 44.40267694 60.7842617 44.34705925 C62.62667247 44.32664536 64.46910285 44.30793068 66.31154823 44.29092598 C68.88786551 44.26686066 71.46404745 44.23680892 74.0402832 44.20532227 C74.80560867 44.1995668 75.57093414 44.19381134 76.35945129 44.18788147 C79.49915326 44.14413197 81.99929144 44.00023619 85 43 C87.21852079 39.03001543 87.4001932 35.48216387 87 31 C85.76141498 28.2131837 84.84329298 26.55142855 82.28300476 24.8772583 C79.32268768 23.73973867 76.89348936 23.7628338 73.72192383 23.77636719 C72.4499263 23.77586365 71.17792877 23.77536011 69.86738586 23.77484131 C69.18991114 23.7787664 68.51243641 23.7826915 67.81443214 23.78673553 C65.68173118 23.79699673 63.54961158 23.79155299 61.41691589 23.78131104 C55.35458199 23.75340638 49.29257333 23.74072422 43.23022461 23.77001953 C39.5164267 23.78683838 35.80366679 23.77429352 32.08997154 23.74356842 C30.68233352 23.73750121 29.2746022 23.74223465 27.86704445 23.75844574 C19.0170303 23.85606669 12.60552925 23.26649384 6 17 C1.19036006 11.51439415 -0.13673691 7.24705643 0 0 Z " fill="#77926F" transform="translate(14,5)"/>
<path d="M0 0 C37.95 0 75.9 0 115 0 C111 3 111 3 109.0703125 4.2890625 C101.96039822 9.17177472 98.17960552 15.0509862 95 23 C86.42 23 77.84 23 69 23 C69 52.7 69 82.4 69 113 C61.74 113 54.48 113 47 113 C47 83.3 47 53.6 47 23 C38.09 23 29.18 23 20 23 C18.35 19.7 16.7 16.4 15 13 C12.26190696 8.9476223 9.43419061 6.75165893 5.25 4.25 C3.48675512 3.18836041 1.73246164 2.11116505 0 1 C0 0.67 0 0.34 0 0 Z " fill="#050505" transform="translate(105,5)"/>
<path d="M0 0 C4.00125 -0.0825 8.0025 -0.165 12.125 -0.25 C13.37555176 -0.28641602 14.62610352 -0.32283203 15.91455078 -0.36035156 C26.39840613 -0.46507188 26.39840613 -0.46507188 31 4 C31.6875 7 31.6875 7 31 10 C28.5 12.375 28.5 12.375 26 14 C26.969375 14.556875 27.93875 15.11375 28.9375 15.6875 C32 18 32 18 33.1875 20.4375 C33 23 33 23 30.75 25.75 C26.83146246 28.95607617 24.14636655 29.12257039 19.23828125 29.09765625 C17.72681519 29.09390991 17.72681519 29.09390991 16.18481445 29.09008789 C14.2680188 29.07643188 14.2680188 29.07643188 12.3125 29.0625 C6.2178125 29.0315625 6.2178125 29.0315625 0 29 C0 19.43 0 9.86 0 0 Z " fill="#100F0F" transform="translate(13,131)"/>
<path d="M0 0 C4.00125 -0.0825 8.0025 -0.165 12.125 -0.25 C13.37555176 -0.28641602 14.62610352 -0.32283203 15.91455078 -0.36035156 C22.23200939 -0.4234549 26.28877859 -0.40983014 31 4 C33 7 33 7 32.875 9.4375 C31.80769947 12.56316584 30.60704489 13.98885109 28 16 C26.68 16 25.36 16 24 16 C24.5775 16.77085937 25.155 17.54171875 25.75 18.3359375 C26.4925 19.33882812 27.235 20.34171875 28 21.375 C29.11375 22.87160156 29.11375 22.87160156 30.25 24.3984375 C32 27 32 27 32 29 C29.2265625 29.33984375 29.2265625 29.33984375 26 29 C24.0859375 26.62890625 24.0859375 26.62890625 22.375 23.5625 C19.49226741 19.14231941 19.49226741 19.14231941 14.8203125 17.046875 C11.83565314 16.83619316 8.98284149 16.78622969 6 17 C6 20.63 6 24.26 6 28 C4.02 28 2.04 28 0 28 C0 18.76 0 9.52 0 0 Z " fill="#0F0E0E" transform="translate(218,131)"/>
<path d="M0 0 C1.23556641 0.01740234 1.23556641 0.01740234 2.49609375 0.03515625 C3.32238281 0.04417969 4.14867187 0.05320313 5 0.0625 C5.63808594 0.07410156 6.27617187 0.08570313 6.93359375 0.09765625 C9.94218013 5.42619702 12.9412428 10.75998297 15.93359375 16.09765625 C16.57167969 17.23332031 17.20976562 18.36898437 17.8671875 19.5390625 C18.40472656 20.50714844 18.94226563 21.47523438 19.49609375 22.47265625 C19.97175781 23.32601562 20.44742188 24.179375 20.9375 25.05859375 C21.93359375 27.09765625 21.93359375 27.09765625 21.93359375 29.09765625 C19.62359375 29.09765625 17.31359375 29.09765625 14.93359375 29.09765625 C11.93359375 23.34765625 11.93359375 23.34765625 11.93359375 21.09765625 C5.66359375 21.09765625 -0.60640625 21.09765625 -7.06640625 21.09765625 C-8.12412736 23.74195902 -9.16578918 26.39580503 -10.06640625 29.09765625 C-12.37640625 29.09765625 -14.68640625 29.09765625 -17.06640625 29.09765625 C-15.67864887 25.47299641 -14.07660275 22.05335693 -12.28125 18.61328125 C-11.48557617 17.08767578 -11.48557617 17.08767578 -10.67382812 15.53125 C-10.12275391 14.48066406 -9.57167969 13.43007812 -9.00390625 12.34765625 C-8.44896484 11.28160156 -7.89402344 10.21554688 -7.32226562 9.1171875 C-2.61934764 0.1237877 -2.61934764 0.1237877 0 0 Z " fill="#131212" transform="translate(290.06640625,130.90234375)"/>
<path d="M0 0 C3.05381169 -0.29882167 5.95437777 -0.42785328 9 0 C11.1640625 2.1328125 11.1640625 2.1328125 12.625 5.125 C13.45064453 6.75115234 13.45064453 6.75115234 14.29296875 8.41015625 C14.85628906 9.59480469 15.41960937 10.77945313 16 12 C16.65759075 13.27221672 17.32043878 14.54172857 17.98828125 15.80859375 C23 25.42822 23 25.42822 23 29 C21.02 29 19.04 29 17 29 C15.68 26.69 14.36 24.38 13 22 C7.06 22 1.12 22 -5 22 C-6.32 24.31 -7.64 26.62 -9 29 C-10.98 29 -12.96 29 -15 29 C-13.82412539 24.98242841 -12.24694844 21.5791021 -10.14550781 17.96850586 C-8.95815949 15.92809889 -7.79672226 13.87466718 -6.640625 11.81640625 C-6.24746094 11.11708984 -5.85429687 10.41777344 -5.44921875 9.69726562 C-4.85560547 8.64055664 -4.85560547 8.64055664 -4.25 7.5625 C-3.83878906 6.83095703 -3.42757812 6.09941406 -3.00390625 5.34570312 C-2.00238428 3.56392566 -1.0011607 1.78198048 0 0 Z " fill="#151414" transform="translate(187,131)"/>
<path d="M0 0 C1.1424557 3.42736711 0.87423047 3.82852723 -0.4375 7 C-3.43468026 15.5081246 -2.70218953 23.8423616 1 32 C5.32831156 40.01539177 11.72551275 44.87426593 20.07296753 48.14074707 C25.27330852 49.66734723 30.415776 49.50227733 35.796875 49.43359375 C38.24349025 49.44319201 40.69010482 49.45296271 43.13671875 49.46289062 C46.9572677 49.45426914 50.77765006 49.43734037 54.59814453 49.4152832 C58.31055545 49.40077974 62.02199874 49.4159947 65.734375 49.43359375 C66.8750946 49.41711288 68.01581421 49.40063202 69.19110107 49.38365173 C78.0230782 49.43930426 78.0230782 49.43930426 81.68017578 52.40820312 C84.33231538 55.37127553 85.90242021 57.18176326 86.1171875 61.18359375 C85.57453946 66.23372146 84.84589554 69.37386992 81 73 C77.30079725 75.50010692 73.50517811 75.26922345 69.20214844 75.22705078 C68.42127869 75.22734283 67.64040894 75.22763489 66.83587646 75.22793579 C64.26026212 75.2265448 61.68493868 75.21099452 59.109375 75.1953125 C57.32147378 75.19158155 55.5335705 75.18873496 53.7456665 75.18673706 C49.04384703 75.17910707 44.34215144 75.159464 39.64038086 75.1373291 C34.84100012 75.11685704 30.04159933 75.10773243 25.2421875 75.09765625 C15.82806186 75.07621751 6.41406062 75.04104051 -3 75 C-3 81.6 -3 88.2 -3 95 C25.38 94.67 53.76 94.34 83 94 C79.21744376 96.52170416 76.23514232 96.26720692 71.85668945 96.22705078 C70.61245209 96.22748886 70.61245209 96.22748886 69.34307861 96.22793579 C66.59970663 96.22654179 63.85660582 96.21097732 61.11328125 96.1953125 C59.21184945 96.19158262 57.31041573 96.18873553 55.40898132 96.18673706 C50.40301207 96.17909865 45.39715877 96.15944834 40.39123535 96.1373291 C35.28362598 96.11687517 30.17599789 96.10773631 25.06835938 96.09765625 C15.04551376 96.07620266 5.02278466 96.04101879 -5 96 C-5 88.74 -5 81.48 -5 74 C-2.57245361 73.98541748 -0.14490723 73.97083496 2.35620117 73.95581055 C10.37899723 73.90546174 18.40159926 73.83886612 26.42420483 73.76428509 C31.28807606 73.71956756 36.15186327 73.68031444 41.01586914 73.65356445 C45.71037754 73.62754532 50.40456282 73.58715269 55.09887123 73.53681374 C56.88936658 73.52013563 58.67991782 73.50862723 60.47047997 73.50238609 C62.97960618 73.49275522 65.48790399 73.46470872 67.99682617 73.43237305 C68.73625961 73.43380814 69.47569305 73.43524323 70.23753357 73.4367218 C74.6588127 73.35619732 77.46175818 72.6826945 81 70 C83.32432174 67.01158633 83.47116644 63.70297381 83.39453125 59.96875 C82.72206358 56.61306974 80.59717314 55.04063604 78 53 C75.46831604 51.73415802 73.70082828 51.86858326 70.86694336 51.8581543 C69.79500229 51.85111984 68.72306122 51.84408539 67.61863708 51.83683777 C66.45413528 51.83267349 65.28963348 51.82850922 64.08984375 51.82421875 C61.63085092 51.80100909 59.17186653 51.7768913 56.71289062 51.75195312 C52.83107966 51.71691563 48.94957638 51.6875419 45.06762695 51.67407227 C41.32465057 51.65853728 37.58257924 51.61827599 33.83984375 51.57421875 C32.68951157 51.57612717 31.53917938 51.57803558 30.35398865 51.58000183 C20.70099047 51.43449353 12.13625643 48.75893712 5 42 C-3.34458745 32.00688917 -4.92622505 22.85818303 -4 10 C-2.32653061 2.32653061 -2.32653061 2.32653061 0 0 Z " fill="#262A26" transform="translate(205,22)"/>
<path d="M0 0 C1.3293457 0.00483398 1.3293457 0.00483398 2.68554688 0.00976562 C3.59755859 0.01814453 4.50957031 0.02652344 5.44921875 0.03515625 C6.38056641 0.03966797 7.31191406 0.04417969 8.27148438 0.04882812 C10.55996248 0.06056391 12.84830683 0.07698262 15.13671875 0.09765625 C15.13671875 1.41765625 15.13671875 2.73765625 15.13671875 4.09765625 C13.91855469 4.06285156 12.70039063 4.02804688 11.4453125 3.9921875 C9.82162847 3.96403113 8.1979294 3.93673296 6.57421875 3.91015625 C5.77435547 3.88501953 4.97449219 3.85988281 4.15039062 3.83398438 C-1.30331336 3.76720433 -5.06058173 4.44597273 -9.86328125 7.09765625 C-12.53761303 11.10915393 -12.68230536 14.38206286 -11.86328125 19.09765625 C-9.19514326 22.65517357 -7.20375159 24.38646432 -2.86328125 25.09765625 C-0.26954211 25.16663867 2.29482072 25.19200377 4.88671875 25.16015625 C5.58410156 25.15564453 6.28148437 25.15113281 7 25.14648438 C8.71227678 25.13475645 10.42450908 25.11682278 12.13671875 25.09765625 C12.13671875 22.12765625 12.13671875 19.15765625 12.13671875 16.09765625 C8.83671875 16.09765625 5.53671875 16.09765625 2.13671875 16.09765625 C2.13671875 15.43765625 2.13671875 14.77765625 2.13671875 14.09765625 C7.08671875 14.09765625 12.03671875 14.09765625 17.13671875 14.09765625 C17.234375 24.15625 17.234375 24.15625 17.13671875 27.09765625 C14.29232206 29.94205294 6.55871796 29.20916049 2.69921875 29.28515625 C-5.1147464 29.18775225 -11.68293582 28.22282076 -17.86328125 23.09765625 C-20.43677384 18.88809449 -20.53096781 14.90499948 -19.86328125 10.09765625 C-17.47611507 5.13969571 -14.95815726 3.07322042 -9.86328125 1.09765625 C-6.51658355 0.30127978 -3.43572458 -0.02216597 0 0 Z " fill="#121111" transform="translate(149.86328125,130.90234375)"/>
<path d="M0 0 C2.31 0 4.62 0 7 0 C7.00410889 0.65073486 7.00821777 1.30146973 7.01245117 1.97192383 C7.04534173 4.91970746 7.11597762 7.86541134 7.1875 10.8125 C7.19330078 11.83666016 7.19910156 12.86082031 7.20507812 13.91601562 C7.1640235 19.69241733 7.1640235 19.69241733 10.3046875 24.17578125 C17.30011717 26.31496337 20.51493045 25.24253477 27 22 C27.33 14.74 27.66 7.48 28 0 C29.98 0 31.96 0 34 0 C34.14567407 3.56206722 34.23419196 7.12336551 34.3125 10.6875 C34.35439453 11.69490234 34.39628906 12.70230469 34.43945312 13.74023438 C34.56311037 21.23386344 34.56311037 21.23386344 31.703125 25.125 C25.20874375 29.62977312 16.67916309 29.98505127 9 29 C4.91098815 27.11135327 2.23552706 24.92242706 0 21 C-0.47437069 17.38031299 -0.37720236 13.82989059 -0.25 10.1875 C-0.23195312 9.20845703 -0.21390625 8.22941406 -0.1953125 7.22070312 C-0.14832887 4.81279229 -0.08265694 2.40690665 0 0 Z " fill="#181717" transform="translate(54,131)"/>
<path d="M0 0 C2.65057077 2.48713075 3.03234922 4.54048192 3.1875 8.125 C2.92229607 12.5737959 1.93597531 15.04918428 -1.4375 18.125 C-4.6686773 19.74058865 -7.94411249 19.70053894 -11.4375 19.125 C-14.36560972 17.13139338 -15.94119764 15.62623757 -17.06640625 12.22265625 C-17.9434767 7.41261724 -17.27577391 4.23560359 -14.4375 0.125 C-9.93587711 -3.41198941 -4.74939464 -2.5905789 0 0 Z " fill="#84A37B" transform="translate(167.4375,185.875)"/>
<path d="M0 0 C0.80052292 -0.00014603 1.60104584 -0.00029205 2.42582703 -0.0004425 C5.0608495 0.00025184 7.69580049 0.00802183 10.33081055 0.01586914 C12.16212424 0.01773502 13.99343844 0.01915812 15.82475281 0.02015686 C20.63666165 0.02396867 25.44854014 0.03378754 30.26043701 0.04486084 C35.17386464 0.0551037 40.08729719 0.05966064 45.00073242 0.06469727 C54.63551135 0.07541102 64.2702678 0.09247139 73.9050293 0.11352539 C72.73676504 8.75127725 70.59840909 14.18880983 63.8815918 19.88696289 C59.32628474 22.71377399 54.83132566 23.36276956 49.55175781 23.36889648 C48.31349747 23.37585541 47.07523712 23.38281433 45.79945374 23.38998413 C45.14533068 23.38930309 44.49120762 23.38862206 43.81726265 23.38792038 C41.75216164 23.38694793 39.68757095 23.39998063 37.62254333 23.41690063 C31.755075 23.46295936 25.8876627 23.48777161 20.02001953 23.49438477 C16.42077458 23.49941757 12.82206757 23.52375094 9.22300529 23.55971146 C7.85840024 23.56946398 6.49372078 23.57186635 5.12909126 23.56653976 C-5.17625802 23.5181557 -5.17625802 23.5181557 -14.0949707 28.11352539 C-12.72513568 24.95236764 -12.10590691 24.12081619 -9.0949707 22.11352539 C-6.44100952 21.85523987 -6.44100952 21.85523987 -3.20581055 21.84228516 C-1.99379974 21.83209854 -0.78178894 21.82191193 0.46694946 21.81141663 C2.43563492 21.80820656 2.43563492 21.80820656 4.4440918 21.80493164 C5.80830968 21.79382713 7.17251762 21.78143263 8.53671265 21.76780701 C14.32492008 21.71249903 20.11320083 21.68185396 25.90161133 21.65722656 C29.44546738 21.64124218 32.98898554 21.61090232 36.53266525 21.57246208 C38.52485525 21.55531245 40.51716613 21.55475813 42.50942993 21.55458069 C50.7949517 21.46479551 57.6839754 20.77462459 64.7800293 16.30102539 C68.73087001 12.23398348 70.17360235 7.4035873 71.9050293 2.11352539 C61.36882333 2.17488437 50.83286205 2.25209667 40.29692173 2.3492403 C35.40401944 2.39386235 30.51119886 2.43313632 25.61816406 2.45996094 C20.89122168 2.48607556 16.16459508 2.52653521 11.43784904 2.57671165 C9.63949465 2.59332535 7.8410857 2.60487372 6.04266548 2.6111393 C-9.56103514 2.3770366 -9.56103514 2.3770366 -23.3449707 8.98852539 C-23.98950195 9.50415039 -24.6340332 10.01977539 -25.2980957 10.55102539 C-27.69458473 12.63492889 -29.91837101 14.80088822 -32.0949707 17.11352539 C-30.72964763 11.48156772 -26.61522445 8.36101144 -22.0949707 5.11352539 C-14.80829144 1.08285397 -8.2871805 -0.03979077 0 0 Z " fill="#434642" transform="translate(238.094970703125,4.886474609375)"/>
<path d="M0 0 C2.536875 -0.103125 5.07375 -0.20625 7.6875 -0.3125 C8.47729248 -0.35802002 9.26708496 -0.40354004 10.08081055 -0.45043945 C14.20444448 -0.53125413 15.62953429 -0.28899201 19.01953125 2.35546875 C21 5 21 5 21 7.625 C19.96457415 10.08413639 19.11590587 11.39191154 17 13 C16.34 13 15.68 13 15 13 C15.3609375 13.55429688 15.721875 14.10859375 16.09375 14.6796875 C16.5578125 15.40414062 17.021875 16.12859375 17.5 16.875 C18.19609375 17.95394531 18.19609375 17.95394531 18.90625 19.0546875 C20 21 20 21 20 23 C18.25 22.9375 18.25 22.9375 16 22 C15.443125 20.845 14.88625 19.69 14.3125 18.5 C13.42167051 16.5518622 13.42167051 16.5518622 12 15 C8.8775126 14.05297176 6.30872971 14.04865779 3 14 C3 16.97 3 19.94 3 23 C2.01 23 1.02 23 0 23 C0 15.41 0 7.82 0 0 Z " fill="#EBF0EA" transform="translate(269,183)"/>
<path d="M0 0 C2.5575 -0.061875 5.115 -0.12375 7.75 -0.1875 C8.94834473 -0.22846802 8.94834473 -0.22846802 10.17089844 -0.27026367 C13.34572251 -0.3074499 15.64800432 -0.18319272 18.484375 1.29296875 C20 3 20 3 20.5 6.5 C20 10 20 10 18 11.9375 C17.34 12.288125 16.68 12.63875 16 13 C16.433125 14.0828125 16.433125 14.0828125 16.875 15.1875 C17.91666667 17.79166667 18.95833333 20.39583333 20 23 C18.25 22.9375 18.25 22.9375 16 22 C15.443125 20.845 14.88625 19.69 14.3125 18.5 C13.42167051 16.5518622 13.42167051 16.5518622 12 15 C8.8775126 14.05297176 6.30872971 14.04865779 3 14 C3 16.97 3 19.94 3 23 C2.01 23 1.02 23 0 23 C0 15.41 0 7.82 0 0 Z " fill="#F2F5F1" transform="translate(122,183)"/>
<path d="M0 0 C14.19642857 -0.53571429 14.19642857 -0.53571429 17.8125 1.9375 C20 4 20 4 21 5 C20.875 8.375 20.875 8.375 20 12 C16.24645152 14.97976091 13.39993929 15.34285514 8.6875 15.1875 C7.08455078 15.14689453 7.08455078 15.14689453 5.44921875 15.10546875 C4.64097656 15.07066406 3.83273438 15.03585938 3 15 C3 17.97 3 20.94 3 24 C2.01 24 1.02 24 0 24 C0 16.08 0 8.16 0 0 Z " fill="#DDE6DB" transform="translate(37,182)"/>
<path d="M0 0 C3.5578125 -0.12375 3.5578125 -0.12375 7.1875 -0.25 C7.92508545 -0.28641602 8.6626709 -0.32283203 9.42260742 -0.36035156 C12.98919383 -0.42007563 14.90162764 -0.06097783 17.94921875 1.828125 C20 4 20 4 20.625 7 C20 10 20 10 18.25 12.375 C13.29290434 14.85354783 8.44231023 14.31247714 3 14 C3 16.97 3 19.94 3 23 C2.01 23 1.02 23 0 23 C0 15.41 0 7.82 0 0 Z " fill="#E7EDE6" transform="translate(96,183)"/>
<path d="M0 0 C8.87323944 -0.47323944 8.87323944 -0.47323944 13.125 1.3125 C15.71126004 5.01947273 15.70626626 7.97828919 15.46875 12.42578125 C15 15 15 15 13.125 17.6875 C8.5901272 19.59214658 4.9002035 19.26134419 0 19 C0 12.73 0 6.46 0 0 Z " fill="#82A179" transform="translate(219,185)"/>
<path d="M0 0 C2.31 0 4.62 0 7 0 C7 8.58 7 17.16 7 26 C13.6 26 20.2 26 27 26 C27 26.99 27 27.98 27 29 C18.09 29 9.18 29 0 29 C0 19.43 0 9.86 0 0 Z " fill="#171616" transform="translate(99,131)"/>
<path d="M0 0 C0.33 0 0.66 0 1 0 C1.09796875 0.67546875 1.1959375 1.3509375 1.296875 2.046875 C1.52117187 3.38492188 1.52117187 3.38492188 1.75 4.75 C1.88921875 5.63171875 2.0284375 6.5134375 2.171875 7.421875 C3.19683843 10.61279888 4.42281491 11.87693528 7 14 C9.44564499 14.58401189 9.44564499 14.58401189 12.12890625 14.48242188 C13.66200439 14.49263367 13.66200439 14.49263367 15.22607422 14.50305176 C16.32709473 14.49173218 17.42811523 14.4804126 18.5625 14.46875 C19.70477051 14.47579956 20.84704102 14.48284912 22.02392578 14.4901123 C26.90620542 14.51956573 31.78808646 14.50306324 36.67041016 14.49072266 C40.2388438 14.4883229 43.80664521 14.50937436 47.375 14.53125 C49.00223999 14.51427063 49.00223999 14.51427063 50.66235352 14.49694824 C61.62300349 14.56819795 71.97013696 17.21241731 80 25 C87.26309278 32.76096607 90.69212728 40.40798353 90.34765625 51.1015625 C89.11292574 61.39560787 84.91512098 69.72598175 77.125 76.5 C76.42375 76.995 75.7225 77.49 75 78 C74.34 77.67 73.68 77.34 73 77 C73.67095703 76.48953125 73.67095703 76.48953125 74.35546875 75.96875 C81.01106279 70.63292194 85.46162955 64.53096341 87 56 C87.79632382 45.03632747 86.66929914 36.46405781 79.6640625 27.78515625 C73.58558773 21.26435116 66.11573829 17.93048148 57.22998047 17.61523438 C55.02580457 17.59423206 52.82145545 17.58780959 50.6171875 17.59375 C48.85763229 17.57749573 48.85763229 17.57749573 47.06253052 17.56091309 C42.06988368 17.51522065 37.07729112 17.50356211 32.08447266 17.48876953 C28.4285234 17.47307059 24.7730067 17.4400766 21.1171875 17.40625 C19.99206757 17.40927124 18.86694763 17.41229248 17.70773315 17.41540527 C12.08611601 17.36152002 7.80642161 17.27389612 3 14 C-0.74820524 9.75203406 -0.31529048 5.35993814 0 0 Z " fill="#454844" transform="translate(222,35)"/>
<path d="M0 0 C2.20770805 -0.08165496 4.41630425 -0.13948488 6.625 -0.1875 C7.85476562 -0.22230469 9.08453125 -0.25710937 10.3515625 -0.29296875 C14.26407664 0.0212053 16.64070218 1.03093467 20 3 C20.3125 5.3125 20.3125 5.3125 20 8 C15.95751996 11.29617603 12.1894441 11.37417543 7.1875 11.1875 C6.14819336 11.16719727 6.14819336 11.16719727 5.08789062 11.14648438 C3.39158735 11.11138845 1.69568864 11.05758943 0 11 C0 7.37 0 3.74 0 0 Z " fill="#F7F7F7" transform="translate(224,134)"/>
<path d="M0 0 C15.12942542 -0.46314568 15.12942542 -0.46314568 21.375 5.125 C23.64766754 9.14587334 23.9186815 12.48578918 23 17 C21.62068983 19.76992615 20.42310027 20.89997977 18 23 C15.1875 23.375 15.1875 23.375 13 23 C13.825 22.401875 14.65 21.80375 15.5 21.1875 C18.24502481 18.47375753 18.44692576 16.1688501 18.5625 12.375 C18.58352781 8.3702572 18.58352781 8.3702572 16.32421875 5.23828125 C13.61139783 3.79296321 11.28338638 3.28195265 8.25 2.8125 C6.5175 2.544375 4.785 2.27625 3 2 C3 8.93 3 15.86 3 23 C5.97 23 8.94 23 12 23 C12 23.33 12 23.66 12 24 C8.04 24 4.08 24 0 24 C0 16.08 0 8.16 0 0 Z " fill="#E6EDE5" transform="translate(215,182)"/>
<path d="M0 0 C4.3723549 2.14642877 7.26023287 4.39473407 9 9 C9.20290934 13.6415512 8.59860387 17.04223381 6.125 21 C2.16160741 24.73025185 -2.17254122 24.27905618 -7.3359375 24.2109375 C-10.71577798 23.9433255 -12.51447244 23.33018209 -15 21 C-17.61525329 16.94184834 -18.70124748 13.80855413 -18 9 C-13.53921159 0.87499254 -9.01246175 -1.28139267 0 0 Z M-12 4 C-14.83827391 8.11060359 -15.5059767 11.28761724 -14.62890625 16.09765625 C-13.50369764 19.50123757 -11.92810972 21.00639338 -9 23 C-6.19157394 23.64111544 -3.80979467 23.63007517 -1 23 C1.8100346 21.20636089 3.50940468 19.98119065 5 17 C5.56096526 12.98803329 6.10678522 8.79062037 3.90625 5.23046875 C1.18772414 2.72161643 -0.99296253 2.00084935 -4.625 1.5625 C-8.65114212 2.01706129 -8.65114212 2.01706129 -12 4 Z " fill="#F0F3EE" transform="translate(165,182)"/>
<path d="M0 0 C2.77141717 -0.08089542 5.54047819 -0.14044062 8.3125 -0.1875 C9.09818359 -0.21263672 9.88386719 -0.23777344 10.69335938 -0.26367188 C11.45068359 -0.27333984 12.20800781 -0.28300781 12.98828125 -0.29296875 C14.03302612 -0.31653442 14.03302612 -0.31653442 15.09887695 -0.34057617 C17.58237578 0.10432955 18.47101992 1.03357086 20 3 C20 5 20 5 19 7 C14.89168283 10.14793134 11.78197082 10.33033563 6.6875 10.1875 C5.43324219 10.16042969 4.17898437 10.13335937 2.88671875 10.10546875 C1.93410156 10.07066406 0.98148438 10.03585938 0 10 C0 6.7 0 3.4 0 0 Z " fill="#FAFAFA" transform="translate(20,147)"/>
<path d="M0 0 C1.98 0 3.96 0 6 0 C6.14567407 3.56206722 6.23419196 7.12336551 6.3125 10.6875 C6.3753418 12.19860352 6.3753418 12.19860352 6.43945312 13.74023438 C6.56267532 21.20749955 6.56267532 21.20749955 3.78125 25.125 C1.10332286 26.93034414 -0.65725421 27.79447457 -3.8125 28.3125 C-4.60269531 28.45300781 -5.39289063 28.59351563 -6.20703125 28.73828125 C-6.79871094 28.82464844 -7.39039062 28.91101563 -8 29 C-7.875 27.1875 -7.875 27.1875 -7 25 C-5.02 24.01 -3.04 23.02 -1 22 C-0.67 14.74 -0.34 7.48 0 0 Z " fill="#111010" transform="translate(82,131)"/>
<path d="M0 0 C2.41734542 -0.08117951 4.83194949 -0.14056926 7.25 -0.1875 C7.93191406 -0.21263672 8.61382812 -0.23777344 9.31640625 -0.26367188 C12.59199289 -0.31137459 14.65348556 -0.21085076 17.484375 1.51171875 C17.98453125 2.00285156 18.4846875 2.49398437 19 3 C18.25 7.75 18.25 7.75 16 10 C13.25514407 10.14507695 10.61519457 10.18652423 7.875 10.125 C7.12089844 10.11597656 6.36679687 10.10695312 5.58984375 10.09765625 C3.72642746 10.0740687 1.86317407 10.03819719 0 10 C0 6.7 0 3.4 0 0 Z " fill="#EDEDED" transform="translate(19,134)"/>
<path d="M0 0 C8.25 0 16.5 0 25 0 C25 0.33 25 0.66 25 1 C17.08 1 9.16 1 1 1 C1 9.91 1 18.82 1 28 C5.2384375 27.9071875 5.2384375 27.9071875 9.5625 27.8125 C10.43849854 27.80581299 11.31449707 27.79912598 12.21704102 27.79223633 C18.28491192 27.55308478 21.36296728 25.90257653 26 22 C25.38722388 19.03824877 24.74627478 17.61941217 23 15 C23.66 14.34 24.32 13.68 25 13 C27.64 14.98 30.28 16.96 33 19 C32.9375 21.75 32.9375 21.75 32 25 C25.7813476 29.94665532 19.73934346 29.47518874 12.0625 29.25 C8.081875 29.1675 4.10125 29.085 0 29 C0 19.43 0 9.86 0 0 Z " fill="#2A2929" transform="translate(13,131)"/>
<path d="M0 0 C1.98 0 3.96 0 6 0 C6 9.24 6 18.48 6 28 C4.02 28 2.04 28 0 28 C0 18.76 0 9.52 0 0 Z " fill="#090808" transform="translate(260,131)"/>
<path d="M0 0 C0.99 0 1.98 0 3 0 C3.96238036 2.03976214 4.91972527 4.08190046 5.875 6.125 C6.40867188 7.26195312 6.94234375 8.39890625 7.4921875 9.5703125 C8.858743 12.67869521 9.98629528 15.76204996 11 19 C14.05345704 15.44221823 15.53403364 11.56942569 17.1875 7.25 C17.46013672 6.55261719 17.73277344 5.85523438 18.01367188 5.13671875 C18.68131025 3.42662746 19.34141552 1.71359846 20 0 C20.99 0 21.98 0 23 0 C22.40227336 3.43493576 21.52472216 6.44231496 20.15234375 9.64453125 C19.61577148 10.90620117 19.61577148 10.90620117 19.06835938 12.19335938 C18.50858398 13.48983398 18.50858398 13.48983398 17.9375 14.8125 C17.56044922 15.69615234 17.18339844 16.57980469 16.79492188 17.49023438 C15.86751446 19.66201124 14.93576366 21.83181367 14 24 C12.35 24 10.7 24 9 24 C7.4943349 20.37732706 5.99643454 16.75149451 4.5 13.125 C4.07074219 12.09246094 3.64148438 11.05992187 3.19921875 9.99609375 C2.79316406 9.00996094 2.38710937 8.02382812 1.96875 7.0078125 C1.59169922 6.09660645 1.21464844 5.18540039 0.82617188 4.24658203 C0 2 0 2 0 0 Z " fill="#EBF0E9" transform="translate(176,182)"/>
<path d="M0 0 C10.05679513 -0.45030426 10.05679513 -0.45030426 14 3 C15 5 15 5 15 7 C13.15840327 9.48615558 11.99529289 10.00156904 9 11 C7.43881572 11.06740865 5.8749748 11.08514456 4.3125 11.0625 C2.889375 11.041875 1.46625 11.02125 0 11 C0 7.37 0 3.74 0 0 Z " fill="#86A57E" transform="translate(272,184)"/>
<path d="M0 0 C1.77049689 -0.05410687 3.54146849 -0.09284119 5.3125 -0.125 C6.29863281 -0.14820313 7.28476563 -0.17140625 8.30078125 -0.1953125 C11 0 11 0 14 2 C14.4375 4.4375 14.4375 4.4375 14 7 C11.79958043 9.13465991 10.49097299 9.94420762 7.421875 10.29296875 C6.54015625 10.25816406 5.6584375 10.22335938 4.75 10.1875 C3.1825 10.125625 1.615 10.06375 0 10 C0 6.7 0 3.4 0 0 Z " fill="#82A279" transform="translate(125,185)"/>
<path d="M0 0 C1.77007714 -0.08114106 3.54122098 -0.13925505 5.3125 -0.1875 C6.29863281 -0.22230469 7.28476563 -0.25710937 8.30078125 -0.29296875 C11 0 11 0 12.86328125 1.3515625 C14 3 14 3 13.875 5.5625 C13 8 13 8 10 10 C6.64683663 10.26402861 3.36941342 10.08751723 0 10 C0 6.7 0 3.4 0 0 Z " fill="#82A279" transform="translate(99,185)"/>
<path d="M0 0 C2.68125418 2.38246339 4.11423459 4.8545504 5.6875 8.0625 C6.34298828 9.37927734 6.34298828 9.37927734 7.01171875 10.72265625 C8 13 8 13 8 15 C3.05 15 -1.9 15 -7 15 C-4.75 7.125 -4.75 7.125 -2.375 3.5625 C-1.70597656 2.54349609 -1.70597656 2.54349609 -1.0234375 1.50390625 C-0.68570312 1.00761719 -0.34796875 0.51132813 0 0 Z " fill="#E4E4E4" transform="translate(292,135)"/>
<path d="M0 0 C1.77007714 -0.08114106 3.54122098 -0.13925505 5.3125 -0.1875 C6.29863281 -0.22230469 7.28476562 -0.25710937 8.30078125 -0.29296875 C11 0 11 0 12.86328125 1.3515625 C14 3 14 3 13.875 5.5625 C13 8 13 8 10 10 C6.64683663 10.26402861 3.36941342 10.08751723 0 10 C0 6.7 0 3.4 0 0 Z " fill="#83A27A" transform="translate(41,185)"/>
<path d="M0 0 C4.03075406 4.30873709 5.34271255 8.44808703 7 14 C2.38 14 -2.24 14 -7 14 C-3.11607143 3.82142857 -3.11607143 3.82142857 0 0 Z " fill="#F3F3F3" transform="translate(191,135)"/>
<path d="M0 0 C1.1424557 3.42736711 0.87423047 3.82852723 -0.4375 7 C-3.43468026 15.5081246 -2.70218953 23.8423616 1 32 C6.35884195 41.92378139 14.72356973 46.28335772 25 50 C21.60853782 51.17897331 19.91622855 50.87753442 16.6875 49.375 C7.26900268 44.81219279 0.3996484 38.83343584 -3.1796875 28.640625 C-5.29530834 19.25129823 -4.80617915 9.83033562 -1 1 C-0.67 0.67 -0.34 0.34 0 0 Z " fill="#3B3F39" transform="translate(205,22)"/>
<path d="M0 0 C7.26 0 14.52 0 22 0 C22 0.33 22 0.66 22 1 C18.7 1 15.4 1 12 1 C12 8.26 12 15.52 12 23 C11.01 23 10.02 23 9 23 C9 16.07 9 9.14 9 2 C6.03 2 3.06 2 0 2 C0 1.34 0 0.68 0 0 Z " fill="#EAEFE8" transform="translate(60,183)"/>
<path d="M0 0 C5.61 0 11.22 0 17 0 C17 0.33 17 0.66 17 1 C12.05 1 7.1 1 2 1 C2 4.3 2 7.6 2 11 C6.29 11 10.58 11 15 11 C15 11.33 15 11.66 15 12 C10.71 12 6.42 12 2 12 C2 15.3 2 18.6 2 22 C7.28 22 12.56 22 18 22 C18 22.33 18 22.66 18 23 C12.06 23 6.12 23 0 23 C0 15.41 0 7.82 0 0 Z " fill="#FCFDFC" transform="translate(245,183)"/>
<path d="M0 0 C4.62 0 9.24 0 14 0 C14 0.33 14 0.66 14 1 C10.37 1 6.74 1 3 1 C3 4.63 3 8.26 3 12 C5.97 12 8.94 12 12 12 C12 12.33 12 12.66 12 13 C9.03 13 6.06 13 3 13 C3 16.3 3 19.6 3 23 C2.01 23 1.02 23 0 23 C0 15.41 0 7.82 0 0 Z " fill="#FAFBFA" transform="translate(269,183)"/>
<path d="M0 0 C0.66 0 1.32 0 2 0 C1.89300781 0.73605469 1.78601563 1.47210938 1.67578125 2.23046875 C0.83287767 8.27820649 0.83287767 8.27820649 2.3125 14.0625 C6.1707935 18.49239254 8.25500533 18.44403277 14 19 C14 19.33 14 19.66 14 20 C4.0625 20.58455882 4.0625 20.58455882 0 17 C-2.6227571 12.93020449 -3.61569457 9.82294079 -3 5 C-1.625 2.125 -1.625 2.125 0 0 Z " fill="#F5F7F4" transform="translate(150,186)"/>
<path d="M0 0 C1.32 0.66 2.64 1.32 4 2 C3.03900391 2.49306641 3.03900391 2.49306641 2.05859375 2.99609375 C-4.68175459 6.70278307 -8.61004513 10.76426865 -13 17 C-13.66 17.66 -14.32 18.32 -15 19 C-15.66 19 -16.32 19 -17 19 C-14.17874611 9.97198755 -7.90897716 4.63993327 0 0 Z " fill="#DEDEDE" transform="translate(218,6)"/>
<path d="M0 0 C6.50803403 2.23132595 10.22500526 5.82560763 13.8125 11.625 C14.41707031 12.58664063 15.02164063 13.54828125 15.64453125 14.5390625 C17 17 17 17 17 19 C16.01 19.33 15.02 19.66 14 20 C13.731875 19.35933594 13.46375 18.71867187 13.1875 18.05859375 C10.17312852 11.40516196 6.72456976 7.44823081 1 3 C0.34 2.34 -0.32 1.68 -1 1 C-0.67 0.67 -0.34 0.34 0 0 Z " fill="#E8E8E8" transform="translate(108,8)"/>
<path d="M0 0 C0.99 0 1.98 0 3 0 C2.28273355 4.45915047 0.81528908 8.55733234 -0.8125 12.75 C-1.06064453 13.43449219 -1.30878906 14.11898437 -1.56445312 14.82421875 C-2.33203125 16.796875 -2.33203125 16.796875 -4 20 C-6.19921875 20.953125 -6.19921875 20.953125 -8 21 C-6.48728707 16.28562282 -4.73227046 11.71041415 -2.875 7.125 C-2.59785156 6.43664062 -2.32070312 5.74828125 -2.03515625 5.0390625 C-1.35835767 3.35873499 -0.67940197 1.67927658 0 0 Z " fill="#E8EEE6" transform="translate(196,182)"/>
<path d="M0 0 C0.66 0 1.32 0 2 0 C2.75166913 7.69118596 3.13690844 15.27227893 3 23 C2.01 23 1.02 23 0 23 C0 15.41 0 7.82 0 0 Z " fill="#F8FAF8" transform="translate(96,183)"/>
<path d="M0 0 C2.5 1.1875 2.5 1.1875 4.5 3.1875 C4.03846154 9.64903846 4.03846154 9.64903846 1.5 12.1875 C-1.625 12.3125 -1.625 12.3125 -4.5 12.1875 C-2.85 10.8675 -1.2 9.5475 0.5 8.1875 C0.14950425 4.94541433 -0.06221181 3.57222296 -2.5625 1.375 C-3.201875 0.983125 -3.84125 0.59125 -4.5 0.1875 C-2.5 -0.8125 -2.5 -0.8125 0 0 Z " fill="#EEF2ED" transform="translate(53.5,183.8125)"/>
<path d="M0 0 C0 3.10551666 -0.5393715 4.35261084 -2 7 C-2.12375 6.195625 -2.2475 5.39125 -2.375 4.5625 C-2.58125 3.716875 -2.7875 2.87125 -3 2 C-5.56893838 0.71553081 -7.76576337 0.67022856 -10.625 0.4375 C-11.62789062 0.35371094 -12.63078125 0.26992187 -13.6640625 0.18359375 C-14.43492188 0.12300781 -15.20578125 0.06242188 -16 0 C-16 3.3 -16 6.6 -16 10 C-16.33 10 -16.66 10 -17 10 C-17 6.37 -17 2.74 -17 -1 C-15.10590022 -1.22354607 -13.2095652 -1.42819951 -11.3125 -1.625 C-9.72888672 -1.79902344 -9.72888672 -1.79902344 -8.11328125 -1.9765625 C-4.86283654 -2.0010326 -2.89769204 -1.40852563 0 0 Z " fill="#D5E0D2" transform="translate(141,185)"/>
<path d="M0 0 C0.99 0.33 1.98 0.66 3 1 C3.6875 3.0625 3.6875 3.0625 4 5 C5.32 4.34 6.64 3.68 8 3 C7.67 4.65 7.34 6.3 7 8 C5.35 8 3.7 8 2 8 C0.74335022 5.09399739 0 3.20395416 0 0 Z " fill="#F6F8F6" transform="translate(183,198)"/>
<path d="M0 0 C0.33 0 0.66 0 1 0 C1.09796875 0.67546875 1.1959375 1.3509375 1.296875 2.046875 C2.1812255 7.63410363 2.1812255 7.63410363 4.875 12.5 C6.86220589 13.90273357 8.76528115 15.04226335 11 16 C10.34 16.33 9.68 16.66 9 17 C5.69620405 15.73471644 3.47632948 14.53984007 1.125 11.875 C-0.43773024 7.88135605 -0.2491731 4.23594262 0 0 Z " fill="#3F433E" transform="translate(222,35)"/>
<path d="M0 0 C4.42857143 5.14285714 4.42857143 5.14285714 5 9 C4.01 9.33 3.02 9.66 2 10 C-1.07692308 4.58461538 -1.07692308 4.58461538 -0.6875 1.625 C-0.460625 1.08875 -0.23375 0.5525 0 0 Z " fill="#DBDBDB" transform="translate(120,18)"/>
<path d="M0 0 C1.33804688 0.04060547 1.33804688 0.04060547 2.703125 0.08203125 C3.37859375 0.11683594 4.0540625 0.15164062 4.75 0.1875 C4.75 0.5175 4.75 0.8475 4.75 1.1875 C3.5125 1.31125 2.275 1.435 1 1.5625 C-2.11247204 1.95362481 -4.60647058 2.38989999 -7.25 4.1875 C-7.58 4.8475 -7.91 5.5075 -8.25 6.1875 C-8.58 5.1975 -8.91 4.2075 -9.25 3.1875 C-6.10408067 0.38704377 -4.182936 -0.16511589 0 0 Z " fill="#DBE4D8" transform="translate(160.25,181.8125)"/>
<path d="M0 0 C0.33 0.99 0.66 1.98 1 3 C-0.1875 4.5 -0.1875 4.5 -2 6 C-4.6875 6.1875 -4.6875 6.1875 -7 6 C-2.25 1.125 -2.25 1.125 0 0 Z " fill="#EFF3ED" transform="translate(235,199)"/>
<path d="M0 0 C0.33 0 0.66 0 1 0 C1.3125 2.8125 1.3125 2.8125 1 6 C-1.5 7.875 -1.5 7.875 -4 9 C-3.67 7.68 -3.34 6.36 -3 5 C-2.34 5 -1.68 5 -1 5 C-0.67 3.35 -0.34 1.7 0 0 Z " fill="#F4F7F3" transform="translate(141,187)"/>
</svg>
