<?xml version="1.0" encoding="UTF-8"?>
<svg version="1.1" xmlns="http://www.w3.org/2000/svg" width="331" height="223">
<path d="M0 0 C1.04290963 -0.00260775 2.08581925 -0.00521549 3.1603322 -0.00790226 C4.90003007 -0.00455618 4.90003007 -0.00455618 6.67487335 -0.0011425 C7.89600437 -0.00270249 9.11713538 -0.00426248 10.37527037 -0.00586975 C13.78017027 -0.00918313 17.18501552 -0.00797049 20.58991218 -0.00488353 C24.25593494 -0.00263136 27.92195275 -0.00610812 31.58797455 -0.00886345 C38.77580058 -0.01332211 45.9636162 -0.01234426 53.15144265 -0.00945081 C58.99046612 -0.00719715 64.82948666 -0.00688409 70.66851044 -0.00797462 C71.49791923 -0.00812786 72.32732803 -0.00828109 73.18187043 -0.00843897 C74.86652617 -0.00875868 76.5511819 -0.00908289 78.23583764 -0.00941156 C94.05203108 -0.01226663 109.86821874 -0.0089789 125.68441123 -0.00361119 C139.27063099 0.00085687 152.85684222 0.00008095 166.44306183 -0.00452995 C182.20066929 -0.00987524 197.95827168 -0.01199194 213.71587992 -0.00891769 C215.39451758 -0.00859912 217.07315524 -0.00828475 218.75179291 -0.00797462 C219.57782618 -0.00782035 220.40385945 -0.00766607 221.25492403 -0.00750712 C227.09041924 -0.00664183 232.92591124 -0.00810511 238.76140594 -0.01045418 C245.86791843 -0.01325187 252.97441986 -0.01251458 260.08093107 -0.00717343 C263.71034566 -0.00453599 267.33974179 -0.00353207 270.96915627 -0.00682259 C274.8945914 -0.01032779 278.81999596 -0.00615723 282.74542999 -0.0011425 C283.90522857 -0.00337322 285.06502715 -0.00560395 286.25997114 -0.00790226 C287.30288077 -0.00529452 288.3457904 -0.00268677 289.42030334 0 C290.7813572 0.00024353 290.7813572 0.00024353 292.16990709 0.00049198 C294.21015167 0.12584114 294.21015167 0.12584114 295.21015167 1.12584114 C295.3086959 2.71647424 295.33813861 4.31145592 295.3395462 5.90513802 C295.34269836 6.92289314 295.34585052 7.94064827 295.34909821 8.98924446 C295.34606186 10.65014107 295.34606186 10.65014107 295.34296417 12.34459114 C295.34439926 14.03690865 295.34439926 14.03690865 295.34586334 15.76341438 C295.34654535 18.1542434 295.34468964 20.54507425 295.34052277 22.93589973 C295.33517483 26.60993265 295.3404671 30.28384331 295.34687042 33.95787239 C295.34620964 36.27427891 295.34492849 38.59068536 295.34296417 40.90709114 C295.3449884 42.01435555 295.34701263 43.12161995 295.34909821 44.26243782 C295.34594604 45.28019295 295.34279388 46.29794807 295.3395462 47.34654427 C295.33835281 48.69770332 295.33835281 48.69770332 295.33713531 50.07615852 C295.21015167 52.12584114 295.21015167 52.12584114 294.21015167 53.12584114 C292.61599051 53.2237837 291.01747036 53.25139651 289.42030334 53.25168228 C288.37739372 53.25429003 287.33448409 53.25689778 286.25997114 53.25958455 C285.10017256 53.25735382 283.94037398 53.2551231 282.74542999 53.25282478 C281.52429898 53.25438477 280.30316796 53.25594476 279.04503298 53.25755203 C275.64013307 53.26086541 272.23528783 53.25965277 268.83039117 53.25656581 C265.1643684 53.25431364 261.49835059 53.2577904 257.8323288 53.26054573 C250.64450277 53.26500439 243.45668715 53.26402654 236.2688607 53.26113309 C230.42983723 53.25887943 224.59081669 53.25856637 218.75179291 53.25965691 C217.50767971 53.25988676 217.50767971 53.25988676 216.23843291 53.26012125 C214.55377718 53.26044096 212.86912144 53.26076517 211.18446571 53.26109384 C195.36827227 53.26394891 179.55208461 53.26066118 163.73589212 53.25529347 C150.14967235 53.25082541 136.56346113 53.25160134 122.97724152 53.25621223 C107.21963405 53.26155752 91.46203167 53.26367422 75.70442343 53.26059997 C74.02578576 53.2602814 72.3471481 53.25996703 70.66851044 53.25965691 C69.84247717 53.25950263 69.0164439 53.25934836 68.16537932 53.2591894 C62.32988411 53.25832411 56.49439211 53.25978739 50.6588974 53.26213646 C43.55238492 53.26493415 36.44588349 53.26419686 29.33937228 53.25885572 C25.70995769 53.25621827 22.08056156 53.25521435 18.45114708 53.25850487 C14.52571194 53.26201008 10.60030738 53.25783951 6.67487335 53.25282478 C4.93517548 53.25617087 4.93517548 53.25617087 3.1603322 53.25958455 C2.11742258 53.2569768 1.07451295 53.25436905 0 53.25168228 C-1.36105386 53.25143875 -1.36105386 53.25143875 -2.74960375 53.2511903 C-4.78984833 53.12584114 -4.78984833 53.12584114 -5.78984833 52.12584114 C-5.88839255 50.53520804 -5.91783526 48.94022637 -5.91924286 47.34654427 C-5.92239502 46.32878914 -5.92554718 45.31103401 -5.92879486 44.26243782 C-5.92677063 43.15517342 -5.9247464 42.04790901 -5.92266083 40.90709114 C-5.92361755 39.77887947 -5.92457428 38.6506678 -5.92556 37.4882679 C-5.92624201 35.09743888 -5.9243863 32.70660803 -5.92021942 30.31578255 C-5.91487148 26.64174963 -5.92016376 22.96783897 -5.92656708 19.29380989 C-5.9259063 16.97740337 -5.92462515 14.66099692 -5.92266083 12.34459114 C-5.92569717 10.68369453 -5.92569717 10.68369453 -5.92879486 8.98924446 C-5.9256427 7.97148933 -5.92249054 6.95373421 -5.91924286 5.90513802 C-5.91844727 5.00436531 -5.91765167 4.10359261 -5.91683197 3.17552376 C-5.6717547 -0.78034498 -3.43208419 0.00061409 0 0 Z " fill="#83A37B" transform="translate(17.78984832763672,167.87415885925293)"/>
<path d="M0 0 C1.21519569 -0.00021904 1.21519569 -0.00021904 2.4549408 -0.0004425 C5.12786554 0.00025315 7.80072027 0.00802934 10.47363281 0.01586914 C12.328796 0.01773455 14.18395968 0.01915787 16.03912354 0.02015686 C20.91845056 0.02397234 25.79774774 0.03379437 30.67706299 0.04486084 C35.65742591 0.05509578 40.63779365 0.05965895 45.61816406 0.06469727 C55.38770841 0.07541749 65.15723063 0.0924823 74.92675781 0.11352539 C76.48848577 5.4937562 74.35673791 9.23813676 71.92675781 14.11352539 C68.66288224 19.40750914 64.00093425 22.78306282 58.0967865 24.71112061 C55.29188889 25.23125392 52.6222239 25.23829501 49.76879883 25.23950195 C47.90149864 25.2452121 47.90149864 25.2452121 45.99647522 25.2510376 C45.33411425 25.25123146 44.67175327 25.25142532 43.98932076 25.25162506 C41.19332549 25.25505488 38.39755981 25.27643165 35.60164547 25.29685593 C30.40130905 25.33481188 25.20122341 25.36613863 20.00073242 25.36401367 C16.37775004 25.36322588 12.75561689 25.38661187 9.13285637 25.42589569 C7.75543983 25.43634286 6.37792513 25.43788903 5.00049019 25.43024445 C3.07167586 25.4206053 1.14278291 25.44460256 -0.78588867 25.4699707 C-2.4299192 25.47543915 -2.4299192 25.47543915 -4.10716248 25.48101807 C-8.06358379 26.32471267 -9.58120962 27.99188271 -12.07324219 31.11352539 C-12.64491582 35.11524082 -12.44262847 37.34117225 -10.69824219 40.98852539 C-9.24564177 43.21017364 -9.24564177 43.21017364 -7.07324219 44.11352539 C-5.44158552 44.21216946 -3.80601031 44.24905787 -2.17138672 44.25537109 C-0.63806198 44.26592278 -0.63806198 44.26592278 0.92623901 44.27668762 C2.03758209 44.2808519 3.14892517 44.28501617 4.29394531 44.28930664 C6.64812071 44.31252644 9.00228738 44.33664462 11.35644531 44.36157227 C15.06678922 44.39652478 18.77681707 44.42593452 22.48730469 44.43945312 C26.06907741 44.45505736 29.6499219 44.49537125 33.23144531 44.53930664 C34.32254608 44.53739822 35.41364685 44.53548981 36.53781128 44.53352356 C47.37471331 44.70312041 58.07348898 47.22640626 65.92675781 55.11352539 C73.12053382 63.49659501 76.6346619 72.22728209 76.27441406 83.31665039 C75.02927386 93.33373337 70.21854559 101.00833708 63.05175781 107.86352539 C55.39780649 113.37437034 49.0629933 115.27032258 39.66992188 115.22705078 C38.42546547 115.22726982 38.42546547 115.22726982 37.15586853 115.22749329 C34.41801321 115.22679751 31.68022622 115.21902078 28.94238281 115.21118164 C27.04237912 115.20931627 25.14237495 115.20789293 23.24237061 115.20689392 C18.2446764 115.20307812 13.24701132 115.1932558 8.24932861 115.18218994 C3.14831944 115.1719557 -1.95269445 115.16739198 -7.05371094 115.16235352 C-17.06023414 115.15163271 -27.06673574 115.13456751 -37.07324219 115.11352539 C-38.29182326 112.67636324 -38.20249794 111.08078482 -38.20605469 108.35961914 C-38.20734375 107.42311523 -38.20863281 106.48661133 -38.20996094 105.52172852 C-38.20609375 104.54139648 -38.20222656 103.56106445 -38.19824219 102.55102539 C-38.20210937 101.56682617 -38.20597656 100.58262695 -38.20996094 99.56860352 C-38.20867187 98.63338867 -38.20738281 97.69817383 -38.20605469 96.73461914 C-38.20492676 95.87280029 -38.20379883 95.01098145 -38.20263672 94.12304688 C-38.07324219 92.11352539 -38.07324219 92.11352539 -37.07324219 91.11352539 C-34.61053175 91.0044681 -32.17483264 90.95930415 -29.71118164 90.95581055 C-28.94038773 90.95072983 -28.16959381 90.94564911 -27.3754425 90.94041443 C-25.69538332 90.92968625 -24.01530963 90.92107574 -22.33522987 90.9142952 C-19.67443436 90.90253446 -17.01380326 90.88308709 -14.35307312 90.86117554 C-6.78564954 90.79947849 0.78175991 90.7455739 8.34936523 90.7121582 C12.97368885 90.6911861 17.59771749 90.65585617 22.22187233 90.6114006 C23.98363579 90.59725347 25.7454515 90.58852107 27.50726891 90.58534622 C29.97773327 90.58042519 32.44741903 90.55723513 34.91772461 90.5300293 C35.64264099 90.53303543 36.36755737 90.53604156 37.11444092 90.53913879 C41.76977152 90.46318814 44.95842683 89.5401587 48.92675781 87.11352539 C51.113836 84.45099542 50.92633892 83.10570598 50.73925781 79.61352539 C49.9516005 76.22054004 49.35932406 74.54609163 46.92675781 72.11352539 C43.95626604 71.12336147 41.99539106 70.98364146 38.89550781 70.97167969 C37.87013916 70.96464523 36.84477051 70.95761078 35.78833008 70.95036316 C34.12435181 70.94411674 34.12435181 70.94411674 32.42675781 70.93774414 C30.07128027 70.91453089 27.71581151 70.89041296 25.36035156 70.86547852 C21.65212258 70.83048599 17.9442132 70.80108889 14.23583984 70.78759766 C10.65325116 70.77201701 7.07159636 70.73172598 3.48925781 70.68774414 C2.39613281 70.68965256 1.30300781 70.69156097 0.17675781 70.69352722 C-9.77190056 70.53736418 -19.66001799 68.1365799 -27.07324219 61.11352539 C-34.35001572 52.95941037 -37.41958561 44.46995094 -37.21777344 33.53540039 C-36.58509772 22.93380727 -33.03014119 15.58968313 -25.26074219 8.30102539 C-17.62896083 1.98759398 -9.71337437 -0.04584597 0 0 Z " fill="#809F77" transform="translate(237.0732421875,3.886474609375)"/>
<path d="M0 0 C10.51872213 -0.06971869 21.03738867 -0.12292194 31.55629539 -0.15543652 C36.44142229 -0.17104722 41.3263903 -0.19220098 46.21142578 -0.22631836 C50.93173393 -0.25907643 55.6518899 -0.27688753 60.37230301 -0.28463173 C62.16710427 -0.29014585 63.96189784 -0.30091312 65.75663376 -0.31719017 C80.0765068 -0.44181689 91.75431029 0.41324586 102.75390625 10.62890625 C106.71088059 14.90323191 108.86765921 19.63087525 111 25 C111.495 25.99 111.495 25.99 112 27 C112.88748264 39.45385475 112.05870442 48.59019622 103.625 58.375 C95.73940067 66.56833004 87.8358635 70.0759672 76.44873047 70.34057617 C74.00483133 70.34010706 71.56089584 70.32350939 69.1171875 70.29296875 C67.82177032 70.28872391 66.52635315 70.28447906 65.19168091 70.28010559 C61.78200245 70.26876378 58.37272 70.23939184 54.9631958 70.20599365 C51.47030999 70.17505967 47.97735891 70.16155093 44.484375 70.14648438 C37.65608944 70.11450917 30.82806384 70.06344572 24 70 C24.00222061 70.54901474 24.00444122 71.09802948 24.00672913 71.66368103 C24.02878358 77.35707959 24.04390726 83.0504661 24.05493164 88.74389648 C24.05997298 90.87118014 24.06680591 92.99846031 24.07543945 95.12573242 C24.08751379 98.17627826 24.09323014 101.22677845 24.09765625 104.27734375 C24.10281754 105.23462875 24.10797882 106.19191376 24.11329651 107.1782074 C24.11340981 108.49946373 24.11340981 108.49946373 24.11352539 109.84741211 C24.115746 110.62684677 24.11796661 111.40628143 24.12025452 112.20933533 C24 114 24 114 23 115 C21.29227642 115.08713831 19.58101351 115.10700007 17.87109375 115.09765625 C16.31938477 115.09282227 16.31938477 115.09282227 14.73632812 115.08789062 C13.64771484 115.07951172 12.55910156 115.07113281 11.4375 115.0625 C9.7987793 115.05573242 9.7987793 115.05573242 8.12695312 115.04882812 C5.41791505 115.03699826 2.70898401 115.02051543 0 115 C-0.89333664 111.16939538 -1.13167173 107.61056003 -1.14526367 103.6809082 C-1.15164352 102.42643387 -1.15802338 101.17195953 -1.16459656 99.87947083 C-1.16612465 98.51990803 -1.16723892 97.16034471 -1.16796875 95.80078125 C-1.17118367 94.40024278 -1.17454792 92.99970464 -1.17805481 91.59916687 C-1.18402838 88.67149068 -1.18589632 85.74384396 -1.18530273 82.81616211 C-1.18520072 79.05994473 -1.19890116 75.30391472 -1.21607494 71.54774189 C-1.22717114 68.65932846 -1.22922275 65.77096087 -1.22869301 62.88252831 C-1.22987487 61.49700456 -1.23430815 60.1114797 -1.24202538 58.72597694 C-1.25178517 56.794312 -1.24769341 54.86259191 -1.24291992 52.9309082 C-1.24434494 51.83124222 -1.24576996 50.73157623 -1.24723816 49.59858704 C-1 47 -1 47 1 45 C3.563248 44.80878576 6.01941977 44.74082964 8.58325195 44.76049805 C9.36555176 44.75848389 10.14785156 44.75646973 10.95385742 44.75439453 C12.65573587 44.7508442 14.35762749 44.75162205 16.05950356 44.75617027 C18.75378803 44.76175087 21.44763994 44.75262516 24.14189148 44.7389679 C31.80319071 44.70178923 39.4643456 44.68329674 47.12573242 44.69458008 C51.80964747 44.7004333 56.49295672 44.68215734 61.17674828 44.64869118 C62.96168513 44.64073668 64.74668799 44.64201487 66.53161049 44.65271568 C69.03126362 44.66705283 71.5290161 44.65076263 74.02856445 44.62768555 C75.13300148 44.64533714 75.13300148 44.64533714 76.25975037 44.66334534 C80.14661044 44.59305513 81.86879227 44.10261833 84.96696472 41.67951965 C87.27689289 39.08551752 87.27689289 39.08551752 87.5 35.5 C86.98103819 31.86726731 86.21388255 29.89507718 84 27 C81.29551794 25.64775897 79.17647022 25.86786854 76.1484375 25.8581543 C74.91955811 25.85111984 73.69067871 25.84408539 72.42456055 25.83683777 C71.76531586 25.83502188 71.10607117 25.83320599 70.42684937 25.83133507 C68.3571364 25.82415679 66.2876588 25.808476 64.21801758 25.78999329 C58.33239162 25.73761902 52.4468886 25.68965318 46.56103516 25.67407227 C42.95987183 25.66391503 39.35929288 25.63438878 35.75836182 25.59275246 C34.39345753 25.5805369 33.02847028 25.57530373 31.66351318 25.57755089 C22.40818722 25.58902787 14.00682976 25.03595412 6.5625 19.03515625 C1.29139785 12.38038978 -0.0770504 8.42417728 0 0 Z " fill="#7F9F77" transform="translate(13,4)"/>
<path d="M0 0 C37.95 0 75.9 0 115 0 C115.495 0.99 115.495 0.99 116 2 C115.27554688 2.4125 114.55109375 2.825 113.8046875 3.25 C106.98725672 7.32227865 101.31178117 11.3925554 98.20101929 18.93800354 C97.02843017 21.40112839 95.97273707 23.10058419 94 25 C89.89929501 26.14973939 85.92391937 26.07427971 81.6875 26 C80.56537109 26.01160156 79.44324219 26.02320312 78.28710938 26.03515625 C75.52288984 26.05868152 72.76379856 26.04575089 70 26 C70.00222061 27.10025009 70.00444122 28.20050018 70.00672913 29.33409119 C70.02695967 39.6792282 70.04197171 50.02436123 70.05181217 60.36951351 C70.05704122 65.68865213 70.06413927 71.00777484 70.07543945 76.3269043 C70.08626755 81.45563985 70.09227667 86.58436006 70.09487724 91.71310616 C70.09673163 93.67441614 70.10035251 95.63572524 70.10573006 97.59702873 C70.11293946 100.33415447 70.11399099 103.07121597 70.11352539 105.80834961 C70.11712067 106.62761932 70.12071594 107.44688904 70.12442017 108.29098511 C70.11405216 113.88594784 70.11405216 113.88594784 69 115 C61.41 115 53.82 115 46 115 C46 85.3 46 55.6 46 25 C37.75 25 29.5 25 21 25 C17.65864649 23.32932325 16.84530557 19.73316496 15.31640625 16.4453125 C14.07996723 14.14854448 12.84265643 12.79430685 11 11 C11 10.34 11 9.68 11 9 C10.42765625 8.72414063 9.8553125 8.44828125 9.265625 8.1640625 C7.01035733 7.00532152 4.89143622 5.73124294 2.75 4.375 C2.04359375 3.92898437 1.3371875 3.48296875 0.609375 3.0234375 C0.07828125 2.68570312 -0.4528125 2.34796875 -1 2 C-0.67 1.34 -0.34 0.68 0 0 Z " fill="#000000" transform="translate(105,4)"/>
<path d="M0 0 C1.21519569 -0.00021904 1.21519569 -0.00021904 2.4549408 -0.0004425 C5.12786554 0.00025315 7.80072027 0.00802934 10.47363281 0.01586914 C12.328796 0.01773455 14.18395968 0.01915787 16.03912354 0.02015686 C20.91845056 0.02397234 25.79774774 0.03379437 30.67706299 0.04486084 C35.65742591 0.05509578 40.63779365 0.05965895 45.61816406 0.06469727 C55.38770841 0.07541749 65.15723063 0.0924823 74.92675781 0.11352539 C76.48848577 5.4937562 74.35673791 9.23813676 71.92675781 14.11352539 C68.66288224 19.40750914 64.00093425 22.78306282 58.0967865 24.71112061 C55.29188889 25.23125392 52.6222239 25.23829501 49.76879883 25.23950195 C47.90149864 25.2452121 47.90149864 25.2452121 45.99647522 25.2510376 C45.33411425 25.25123146 44.67175327 25.25142532 43.98932076 25.25162506 C41.19332549 25.25505488 38.39755981 25.27643165 35.60164547 25.29685593 C30.40130905 25.33481188 25.20122341 25.36613863 20.00073242 25.36401367 C16.37775004 25.36322588 12.75561689 25.38661187 9.13285637 25.42589569 C7.75543983 25.43634286 6.37792513 25.43788903 5.00049019 25.43024445 C3.07167586 25.4206053 1.14278291 25.44460256 -0.78588867 25.4699707 C-2.4299192 25.47543915 -2.4299192 25.47543915 -4.10716248 25.48101807 C-8.06358379 26.32471267 -9.58120962 27.99188271 -12.07324219 31.11352539 C-12.64491582 35.11524082 -12.44262847 37.34117225 -10.69824219 40.98852539 C-9.24564177 43.21017364 -9.24564177 43.21017364 -7.07324219 44.11352539 C-5.44158552 44.21216946 -3.80601031 44.24905787 -2.17138672 44.25537109 C-0.63806198 44.26592278 -0.63806198 44.26592278 0.92623901 44.27668762 C2.03758209 44.2808519 3.14892517 44.28501617 4.29394531 44.28930664 C6.64812071 44.31252644 9.00228738 44.33664462 11.35644531 44.36157227 C15.06678922 44.39652478 18.77681707 44.42593452 22.48730469 44.43945312 C26.06907741 44.45505736 29.6499219 44.49537125 33.23144531 44.53930664 C34.32254608 44.53739822 35.41364685 44.53548981 36.53781128 44.53352356 C47.37471331 44.70312041 58.07348898 47.22640626 65.92675781 55.11352539 C73.12053382 63.49659501 76.6346619 72.22728209 76.27441406 83.31665039 C75.02927386 93.33373337 70.21854559 101.00833708 63.05175781 107.86352539 C55.39780649 113.37437034 49.0629933 115.27032258 39.66992188 115.22705078 C38.42546547 115.22726982 38.42546547 115.22726982 37.15586853 115.22749329 C34.41801321 115.22679751 31.68022622 115.21902078 28.94238281 115.21118164 C27.04237912 115.20931627 25.14237495 115.20789293 23.24237061 115.20689392 C18.2446764 115.20307812 13.24701132 115.1932558 8.24932861 115.18218994 C3.14831944 115.1719557 -1.95269445 115.16739198 -7.05371094 115.16235352 C-17.06023414 115.15163271 -27.06673574 115.13456751 -37.07324219 115.11352539 C-38.29182326 112.67636324 -38.20249794 111.08078482 -38.20605469 108.35961914 C-38.20734375 107.42311523 -38.20863281 106.48661133 -38.20996094 105.52172852 C-38.20609375 104.54139648 -38.20222656 103.56106445 -38.19824219 102.55102539 C-38.20210937 101.56682617 -38.20597656 100.58262695 -38.20996094 99.56860352 C-38.20867187 98.63338867 -38.20738281 97.69817383 -38.20605469 96.73461914 C-38.20492676 95.87280029 -38.20379883 95.01098145 -38.20263672 94.12304688 C-38.07324219 92.11352539 -38.07324219 92.11352539 -37.07324219 91.11352539 C-34.61053175 91.0044681 -32.17483264 90.95930415 -29.71118164 90.95581055 C-28.94038773 90.95072983 -28.16959381 90.94564911 -27.3754425 90.94041443 C-25.69538332 90.92968625 -24.01530963 90.92107574 -22.33522987 90.9142952 C-19.67443436 90.90253446 -17.01380326 90.88308709 -14.35307312 90.86117554 C-6.78564954 90.79947849 0.78175991 90.7455739 8.34936523 90.7121582 C12.97368885 90.6911861 17.59771749 90.65585617 22.22187233 90.6114006 C23.98363579 90.59725347 25.7454515 90.58852107 27.50726891 90.58534622 C29.97773327 90.58042519 32.44741903 90.55723513 34.91772461 90.5300293 C35.64264099 90.53303543 36.36755737 90.53604156 37.11444092 90.53913879 C41.76977152 90.46318814 44.95842683 89.5401587 48.92675781 87.11352539 C51.113836 84.45099542 50.92633892 83.10570598 50.73925781 79.61352539 C49.9516005 76.22054004 49.35932406 74.54609163 46.92675781 72.11352539 C43.95626604 71.12336147 41.99539106 70.98364146 38.89550781 70.97167969 C37.87013916 70.96464523 36.84477051 70.95761078 35.78833008 70.95036316 C34.12435181 70.94411674 34.12435181 70.94411674 32.42675781 70.93774414 C30.07128027 70.91453089 27.71581151 70.89041296 25.36035156 70.86547852 C21.65212258 70.83048599 17.9442132 70.80108889 14.23583984 70.78759766 C10.65325116 70.77201701 7.07159636 70.73172598 3.48925781 70.68774414 C2.39613281 70.68965256 1.30300781 70.69156097 0.17675781 70.69352722 C-9.77190056 70.53736418 -19.66001799 68.1365799 -27.07324219 61.11352539 C-34.35001572 52.95941037 -37.41958561 44.46995094 -37.21777344 33.53540039 C-36.58509772 22.93380727 -33.03014119 15.58968313 -25.26074219 8.30102539 C-17.62896083 1.98759398 -9.71337437 -0.04584597 0 0 Z M-29.07324219 15.11352539 C-32.39313719 19.79624125 -34.72532894 24.31497129 -35.07324219 30.11352539 C-35.12351563 30.93723633 -35.17378906 31.76094727 -35.22558594 32.60961914 C-35.59017525 43.12437492 -32.86631865 50.95175074 -25.63574219 58.73852539 C-24.79011719 59.52227539 -23.94449219 60.30602539 -23.07324219 61.11352539 C-21.95949219 62.16540039 -21.95949219 62.16540039 -20.82324219 63.23852539 C-13.24964423 68.40234218 -5.25113106 68.53272444 3.66113281 68.48461914 C6.11556139 68.50198723 8.56998845 68.51957174 11.02441406 68.53735352 C14.86477325 68.54745583 18.70503817 68.5510129 22.54541016 68.54931641 C26.27176786 68.55287889 29.99740338 68.58017702 33.72363281 68.60961914 C34.87265076 68.60143661 36.0216687 68.59325409 37.20550537 68.58482361 C45.16986616 68.65940202 45.16986616 68.65940202 49.10717773 71.02172852 C51.48698638 73.7575665 52.82388516 75.63901741 53.07910156 79.29711914 C52.66766663 83.61344557 52.30497718 85.64802464 49.48925781 89.11352539 C45.38255979 92.31875312 42.4033519 92.2796368 37.35595703 92.31884766 C36.57537933 92.32874725 35.79480164 92.33864685 34.99057007 92.34884644 C32.40422626 92.38049517 29.81786406 92.40523215 27.23144531 92.42993164 C25.44067908 92.45049826 23.64991773 92.47149465 21.85916138 92.49290466 C17.14097038 92.54815552 12.42273536 92.59755149 7.70446777 92.64575195 C2.89180574 92.69594499 -1.92079218 92.75164251 -6.73339844 92.80688477 C-16.17996035 92.91450322 -25.62657657 93.01543147 -35.07324219 93.11352539 C-35.07324219 99.71352539 -35.07324219 106.31352539 -35.07324219 113.11352539 C-24.68486863 113.18148932 -14.29664442 113.23644971 -3.90809822 113.26896191 C0.91649558 113.28457156 5.74092847 113.30572335 10.56542969 113.33984375 C15.22738334 113.37260563 19.88918288 113.3904137 24.55124283 113.39815712 C26.3237157 113.40367056 28.0961808 113.4144365 29.86858749 113.43071556 C42.73555235 113.54412064 54.05700123 113.49510047 63.92675781 104.11352539 C71.58275944 95.88462568 73.53347294 87.59122265 73.28222656 76.48852539 C72.7822898 71.74187306 71.35882228 68.17818677 68.92675781 64.11352539 C68.32863281 63.06165039 67.73050781 62.00977539 67.11425781 60.92602539 C61.91740827 54.24436169 56.0778169 50.44988907 47.92675781 48.11352539 C43.71291046 47.59115123 39.5555689 47.57845704 35.31347656 47.60961914 C34.14089798 47.60019791 32.9683194 47.59077667 31.76020813 47.58106995 C28.04471008 47.55258002 24.32985593 47.54933725 20.61425781 47.55102539 C16.88090197 47.54741642 13.14800814 47.53790702 9.41474915 47.51026917 C7.0998572 47.49349017 4.78481242 47.49059749 2.46989441 47.50328064 C1.42142838 47.49639725 0.37296234 47.48951385 -0.70727539 47.48242188 C-2.08433403 47.48386452 -2.08433403 47.48386452 -3.48921204 47.4853363 C-7.37573005 46.92611303 -10.00243479 45.07355961 -12.88574219 42.48852539 C-14.74600596 38.76799785 -14.61916133 35.18972165 -14.07324219 31.11352539 C-12.44924035 27.4788546 -11.41211175 26.33943843 -8.07324219 24.11352539 C-5.34335327 23.86196899 -5.34335327 23.86196899 -2.00048828 23.8581543 C-0.74843597 23.85119537 0.50361633 23.84423645 1.79360962 23.83706665 C2.46278034 23.83774769 3.13195107 23.83842873 3.82139969 23.8391304 C5.92461438 23.84009768 8.02732074 23.82712722 10.13046265 23.81015015 C16.10988339 23.76395977 22.08925466 23.73930713 28.06884766 23.73266602 C31.7294765 23.72762065 35.38957967 23.70321247 39.05002975 23.66733932 C40.43810224 23.65760407 41.82624766 23.6551748 43.21434402 23.66051102 C52.00467105 23.69269536 59.72116131 23.43561174 66.72232056 17.62271118 C69.81230094 14.42969891 71.22743007 11.73662569 72.08691406 7.37524414 C72.2494165 6.5743335 72.41191895 5.77342285 72.5793457 4.94824219 C72.6939917 4.34278564 72.8086377 3.7373291 72.92675781 3.11352539 C62.27768437 3.02057377 51.62870851 2.94963309 40.97931099 2.9062767 C36.0335869 2.8854608 31.08814173 2.85725345 26.14257812 2.81176758 C21.36390339 2.768095 16.58549582 2.74434324 11.80663681 2.73401642 C9.98948846 2.72666331 8.17235364 2.7123049 6.35531998 2.69060516 C-8.12508336 2.52465588 -18.88578537 3.72045238 -29.07324219 15.11352539 Z " fill="#383E37" transform="translate(237.0732421875,3.886474609375)"/>
<path d="M0 0 C10.51872213 -0.06971869 21.03738867 -0.12292194 31.55629539 -0.15543652 C36.44142229 -0.17104722 41.3263903 -0.19220098 46.21142578 -0.22631836 C50.93173393 -0.25907643 55.6518899 -0.27688753 60.37230301 -0.28463173 C62.16710427 -0.29014585 63.96189784 -0.30091312 65.75663376 -0.31719017 C80.0765068 -0.44181689 91.75431029 0.41324586 102.75390625 10.62890625 C106.71088059 14.90323191 108.86765921 19.63087525 111 25 C111.495 25.99 111.495 25.99 112 27 C112.88748264 39.45385475 112.05870442 48.59019622 103.625 58.375 C95.73940067 66.56833004 87.8358635 70.0759672 76.44873047 70.34057617 C74.00483133 70.34010706 71.56089584 70.32350939 69.1171875 70.29296875 C67.82177032 70.28872391 66.52635315 70.28447906 65.19168091 70.28010559 C61.78200245 70.26876378 58.37272 70.23939184 54.9631958 70.20599365 C51.47030999 70.17505967 47.97735891 70.16155093 44.484375 70.14648438 C37.65608944 70.11450917 30.82806384 70.06344572 24 70 C24.00222061 70.54901474 24.00444122 71.09802948 24.00672913 71.66368103 C24.02878358 77.35707959 24.04390726 83.0504661 24.05493164 88.74389648 C24.05997298 90.87118014 24.06680591 92.99846031 24.07543945 95.12573242 C24.08751379 98.17627826 24.09323014 101.22677845 24.09765625 104.27734375 C24.10281754 105.23462875 24.10797882 106.19191376 24.11329651 107.1782074 C24.11340981 108.49946373 24.11340981 108.49946373 24.11352539 109.84741211 C24.115746 110.62684677 24.11796661 111.40628143 24.12025452 112.20933533 C24 114 24 114 23 115 C21.29227642 115.08713831 19.58101351 115.10700007 17.87109375 115.09765625 C16.31938477 115.09282227 16.31938477 115.09282227 14.73632812 115.08789062 C13.64771484 115.07951172 12.55910156 115.07113281 11.4375 115.0625 C9.7987793 115.05573242 9.7987793 115.05573242 8.12695312 115.04882812 C5.41791505 115.03699826 2.70898401 115.02051543 0 115 C-0.89333664 111.16939538 -1.13167173 107.61056003 -1.14526367 103.6809082 C-1.15164352 102.42643387 -1.15802338 101.17195953 -1.16459656 99.87947083 C-1.16612465 98.51990803 -1.16723892 97.16034471 -1.16796875 95.80078125 C-1.17118367 94.40024278 -1.17454792 92.99970464 -1.17805481 91.59916687 C-1.18402838 88.67149068 -1.18589632 85.74384396 -1.18530273 82.81616211 C-1.18520072 79.05994473 -1.19890116 75.30391472 -1.21607494 71.54774189 C-1.22717114 68.65932846 -1.22922275 65.77096087 -1.22869301 62.88252831 C-1.22987487 61.49700456 -1.23430815 60.1114797 -1.24202538 58.72597694 C-1.25178517 56.794312 -1.24769341 54.86259191 -1.24291992 52.9309082 C-1.24434494 51.83124222 -1.24576996 50.73157623 -1.24723816 49.59858704 C-1 47 -1 47 1 45 C3.563248 44.80878576 6.01941977 44.74082964 8.58325195 44.76049805 C9.36555176 44.75848389 10.14785156 44.75646973 10.95385742 44.75439453 C12.65573587 44.7508442 14.35762749 44.75162205 16.05950356 44.75617027 C18.75378803 44.76175087 21.44763994 44.75262516 24.14189148 44.7389679 C31.80319071 44.70178923 39.4643456 44.68329674 47.12573242 44.69458008 C51.80964747 44.7004333 56.49295672 44.68215734 61.17674828 44.64869118 C62.96168513 44.64073668 64.74668799 44.64201487 66.53161049 44.65271568 C69.03126362 44.66705283 71.5290161 44.65076263 74.02856445 44.62768555 C75.13300148 44.64533714 75.13300148 44.64533714 76.25975037 44.66334534 C80.14661044 44.59305513 81.86879227 44.10261833 84.96696472 41.67951965 C87.27689289 39.08551752 87.27689289 39.08551752 87.5 35.5 C86.98103819 31.86726731 86.21388255 29.89507718 84 27 C81.29551794 25.64775897 79.17647022 25.86786854 76.1484375 25.8581543 C74.91955811 25.85111984 73.69067871 25.84408539 72.42456055 25.83683777 C71.76531586 25.83502188 71.10607117 25.83320599 70.42684937 25.83133507 C68.3571364 25.82415679 66.2876588 25.808476 64.21801758 25.78999329 C58.33239162 25.73761902 52.4468886 25.68965318 46.56103516 25.67407227 C42.95987183 25.66391503 39.35929288 25.63438878 35.75836182 25.59275246 C34.39345753 25.5805369 33.02847028 25.57530373 31.66351318 25.57755089 C22.40818722 25.58902787 14.00682976 25.03595412 6.5625 19.03515625 C1.29139785 12.38038978 -0.0770504 8.42417728 0 0 Z M2 3 C2.30348789 4.45362081 2.61228185 5.90613457 2.92333984 7.3581543 C3.0947348 8.16713669 3.26612976 8.97611908 3.44271851 9.80961609 C4.07863838 12.3090866 4.89247758 13.900918 6.625 15.8125 C7.07101563 16.33457031 7.51703125 16.85664063 7.9765625 17.39453125 C15.22023114 23.14192085 21.51926358 23.57158288 30.54555321 23.51642036 C32.64412131 23.50367143 34.74139701 23.51518343 36.83992004 23.53245544 C40.53530671 23.55902077 44.23037046 23.56475592 47.92584229 23.56335449 C53.8499036 23.56111628 59.77356774 23.57532532 65.69747353 23.61894035 C67.75883286 23.6287439 69.81955932 23.62008389 71.88090515 23.61024475 C73.13603409 23.61712814 74.39116302 23.62401154 75.68432617 23.63110352 C77.33690681 23.62966087 77.33690681 23.62966087 79.02287292 23.62818909 C82.39747791 24.04964068 84.27031459 25.00724564 87 27 C88.92345874 29.82725261 89.27317658 32.11621947 89.25 35.5 C89.25773437 36.62921875 89.25773437 36.62921875 89.265625 37.78125 C88.95586382 40.36866688 88.46946662 41.84006111 87 44 C82.84410743 47.17103839 79.14378358 47.44230974 74.08862305 47.43237305 C72.91709938 47.44766052 72.91709938 47.44766052 71.72190857 47.46325684 C69.15177192 47.49334432 66.58200825 47.50264613 64.01171875 47.51171875 C62.2252326 47.52856861 60.43875828 47.54671927 58.65229797 47.56611633 C53.95880837 47.61358917 49.26536675 47.64341609 44.57171631 47.66955566 C38.93560623 47.70462108 33.29968041 47.76162613 27.66371918 47.81494904 C19.10916953 47.89343114 10.55486056 47.94406066 2 48 C2 69.45 2 90.9 2 113 C8.6 113 15.2 113 22 113 C22 98.15 22 83.3 22 68 C26.33640625 68.05800781 30.6728125 68.11601563 35.140625 68.17578125 C38.62979419 68.20800643 42.11892051 68.23509522 45.6081543 68.25875092 C49.27423681 68.28499728 52.93972767 68.31998127 56.60546875 68.37719727 C60.14576707 68.43210042 63.685497 68.46154068 67.22618866 68.47438622 C69.21350378 68.48792614 71.20059475 68.52686351 73.18756104 68.56648254 C82.85929186 68.56942727 91.48456586 66.63172827 99.375 60.75 C107.75526861 51.97067098 110.51364049 43.95737953 110.2421875 31.953125 C109.54175971 23.41242488 105.9369778 17.10923055 100 11 C92.31878744 4.54612661 84.482929 2.67597608 74.65625 2.77294922 C73.46943886 2.77251114 73.46943886 2.77251114 72.25865173 2.77206421 C69.67231856 2.7734452 67.08628215 2.78894769 64.5 2.8046875 C62.69539548 2.80842202 60.89078892 2.81126692 59.08618164 2.81326294 C54.35811676 2.82086486 49.63017658 2.84048349 44.90216064 2.8626709 C40.0689055 2.88320377 35.23563003 2.89228051 30.40234375 2.90234375 C20.93484133 2.92373288 11.46743107 2.9578269 2 3 Z " fill="#1B201A" transform="translate(13,4)"/>
<path d="M0 0 C0.58007812 0.22429688 1.16015625 0.44859375 1.7578125 0.6796875 C0.88769531 1.28103516 0.88769531 1.28103516 0 1.89453125 C-7.29904357 7.20621147 -13.23312282 13.37752735 -14.99609375 22.51953125 C-16.24002973 33.43852484 -14.71807462 41.69700536 -8.2421875 50.6796875 C-7.9121875 51.4221875 -7.5821875 52.1646875 -7.2421875 52.9296875 C-5.92761828 55.23018363 -4.63592087 55.58168327 -2.2421875 56.6796875 C-1.49839844 57.02128906 -0.75460938 57.36289063 0.01171875 57.71484375 C0.77355469 58.05386719 1.53539062 58.39289063 2.3203125 58.7421875 C3.08472656 59.08378906 3.84914062 59.42539063 4.63671875 59.77734375 C8.30070037 61.33605416 11.09923115 61.80374121 15.05200195 61.80566406 C16.13355057 61.80947083 17.21509918 61.81327759 18.329422 61.81719971 C19.49817368 61.81822693 20.66692535 61.81925415 21.87109375 61.8203125 C24.34050403 61.83863883 26.80990533 61.85820897 29.27929688 61.87890625 C33.1768305 61.9078915 37.07378707 61.92968793 40.97143555 61.93017578 C44.73017723 61.93350863 48.4875837 61.96805104 52.24609375 62.0078125 C53.99011223 61.99720795 53.99011223 61.99720795 55.7693634 61.98638916 C64.79226638 62.12214894 64.79226638 62.12214894 68.45336914 65.09448242 C71.09373003 68.05653152 72.66066636 69.86953113 72.875 73.86328125 C72.33235196 78.91340896 71.60370804 82.05355742 67.7578125 85.6796875 C64.05860975 88.17979442 60.26299061 87.94891095 55.95996094 87.90673828 C55.17909119 87.90703033 54.39822144 87.90732239 53.59368896 87.90762329 C51.01807462 87.9062323 48.44275118 87.89068202 45.8671875 87.875 C44.07928628 87.87126905 42.291383 87.86842246 40.503479 87.86642456 C35.80165953 87.85879457 31.09996394 87.8391515 26.39819336 87.8170166 C21.59881262 87.79654454 16.79941183 87.78741993 12 87.77734375 C2.58587436 87.75590501 -6.82812688 87.72072801 -16.2421875 87.6796875 C-16.2421875 94.2796875 -16.2421875 100.8796875 -16.2421875 107.6796875 C10.8178125 107.6796875 37.8778125 107.6796875 65.7578125 107.6796875 C63.2458266 110.1916734 61.73148409 109.91492888 58.30514526 109.92852783 C57.54557526 109.92133728 56.78600525 109.91414673 56.00341797 109.90673828 C55.20333313 109.90703033 54.40324829 109.90732239 53.57891846 109.90762329 C50.92750297 109.90622706 48.27636656 109.8906522 45.625 109.875 C43.78939976 109.87127091 41.95379752 109.86842345 40.11819458 109.86642456 C35.28154018 109.8587799 30.44500547 109.8391243 25.60839844 109.8170166 C20.67514668 109.79657607 15.74187563 109.78742669 10.80859375 109.77734375 C1.12494735 109.75587917 -8.55861013 109.72173322 -18.2421875 109.6796875 C-19.46076857 107.24252535 -19.37144325 105.64694693 -19.375 102.92578125 C-19.37628906 101.98927734 -19.37757813 101.05277344 -19.37890625 100.08789062 C-19.37503906 99.10755859 -19.37117187 98.12722656 -19.3671875 97.1171875 C-19.37105469 96.13298828 -19.37492188 95.14878906 -19.37890625 94.13476562 C-19.37761719 93.19955078 -19.37632812 92.26433594 -19.375 91.30078125 C-19.37387207 90.4389624 -19.37274414 89.57714355 -19.37158203 88.68920898 C-19.2421875 86.6796875 -19.2421875 86.6796875 -18.2421875 85.6796875 C-15.77947706 85.57063021 -13.34377796 85.52546626 -10.88012695 85.52197266 C-10.10933304 85.51689194 -9.33853912 85.51181122 -8.54438782 85.50657654 C-6.86432863 85.49584836 -5.18425494 85.48723785 -3.50417519 85.48045731 C-0.84337968 85.46869657 1.81725143 85.4492492 4.47798157 85.42733765 C12.04540514 85.3656406 19.61281459 85.31173601 27.18041992 85.27832031 C31.80474354 85.25734821 36.42877218 85.22201828 41.05292702 85.17756271 C42.81469048 85.16341558 44.57650619 85.15468318 46.33832359 85.15150833 C48.80878796 85.1465873 51.27847372 85.12339724 53.7487793 85.09619141 C54.47369568 85.09919754 55.19861206 85.10220367 55.94549561 85.1053009 C60.6008262 85.02935025 63.78948152 84.10632081 67.7578125 81.6796875 C69.94489069 79.01715753 69.7573936 77.67186809 69.5703125 74.1796875 C68.78265519 70.78670215 68.19037874 69.11225374 65.7578125 66.6796875 C62.78732073 65.68952358 60.82644575 65.54980357 57.7265625 65.5378418 C56.70119385 65.53080734 55.6758252 65.52377289 54.61938477 65.51652527 C52.95540649 65.51027885 52.95540649 65.51027885 51.2578125 65.50390625 C48.90233496 65.480693 46.5468662 65.45657507 44.19140625 65.43164062 C40.48317726 65.3966481 36.77526788 65.367251 33.06689453 65.35375977 C29.48430585 65.33817912 25.90265104 65.29788809 22.3203125 65.25390625 C21.2271875 65.25581467 20.1340625 65.25772308 19.0078125 65.25968933 C9.05915413 65.10352629 -0.8289633 62.70274201 -8.2421875 55.6796875 C-15.51896103 47.52557248 -18.58853092 39.03611305 -18.38671875 28.1015625 C-17.6738401 16.15602841 -12.95297731 8.731606 -4.171875 0.796875 C-2.2421875 -0.3203125 -2.2421875 -0.3203125 0 0 Z " fill="#242A23" transform="translate(218.2421875,9.3203125)"/>
<path d="M0 0 C1.55074219 -0.0309375 1.55074219 -0.0309375 3.1328125 -0.0625 C9.17923067 -0.09334907 13.56175312 0.28379714 18.875 3.25 C20.875 5.25 20.875 5.25 21.25 8.125 C20.79991816 11.87568199 19.74898748 12.91488517 16.875 15.25 C17.49375 15.45625 18.1125 15.6625 18.75 15.875 C20.875 17.25 20.875 17.25 22.3125 20.0625 C22.875 23.25 22.875 23.25 21.75 26 C18.35227907 30.07726511 15.01031311 30.56872658 9.875 31.25 C6.45738783 31.41405685 3.04610901 31.43503522 -0.375 31.4375 C-1.28507812 31.44974609 -2.19515625 31.46199219 -3.1328125 31.47460938 C-4.43605469 31.47750977 -4.43605469 31.47750977 -5.765625 31.48046875 C-6.55485352 31.48457764 -7.34408203 31.48868652 -8.15722656 31.49291992 C-10.125 31.25 -10.125 31.25 -12.125 29.25 C-12.36791992 26.46850586 -12.36791992 26.46850586 -12.35546875 22.96484375 C-12.35353516 21.71251953 -12.35160156 20.46019531 -12.34960938 19.16992188 C-12.33736328 17.85572266 -12.32511719 16.54152344 -12.3125 15.1875 C-12.31185547 13.86943359 -12.31121094 12.55136719 -12.31054688 11.19335938 C-12.25611725 -0.54529575 -11.31965597 0.05521783 0 0 Z M-4.125 5.25 C-4.125 7.89 -4.125 10.53 -4.125 13.25 C-2.04195462 13.30418326 0.04149768 13.34287551 2.125 13.375 C3.28515625 13.39820313 4.4453125 13.42140625 5.640625 13.4453125 C8.70286046 13.2603949 10.31702751 12.85823023 12.875 11.25 C12.53055119 8.77733235 12.53055119 8.77733235 11.875 6.25 C8.87186252 4.74843126 6.08432478 5.15718796 2.75 5.1875 C1.46867187 5.19652344 0.18734375 5.20554688 -1.1328125 5.21484375 C-2.12023437 5.22644531 -3.10765625 5.23804688 -4.125 5.25 Z M-4.125 17.25 C-4.125 20.22 -4.125 23.19 -4.125 26.25 C-1.89644426 26.3314222 0.33297655 26.38938079 2.5625 26.4375 C3.80386719 26.47230469 5.04523437 26.50710937 6.32421875 26.54296875 C10.06064321 26.2346829 11.88129483 25.43088273 14.875 23.25 C14.52713292 21.27463255 14.52713292 21.27463255 13.875 19.25 C10.703262 17.664131 7.23986178 17.87133555 3.75 17.6875 C2.99589844 17.64431641 2.24179687 17.60113281 1.46484375 17.55664062 C-0.39821888 17.4505168 -2.26158524 17.34974999 -4.125 17.25 Z " fill="#0E0C0B" transform="translate(24.125,129.75)"/>
<path d="M0 0 C10.62238478 -0.02316156 21.24476355 -0.04093459 31.86716843 -0.05181217 C36.79947552 -0.05703263 41.73176534 -0.06411515 46.6640625 -0.07543945 C51.42323222 -0.08629799 56.18238532 -0.09228315 60.94156647 -0.09487724 C62.75805167 -0.09672613 64.57453596 -0.10033648 66.3910141 -0.10573006 C68.93354769 -0.11297981 71.47601244 -0.11398927 74.01855469 -0.11352539 C74.77093414 -0.11712067 75.5233136 -0.12071594 76.29849243 -0.12442017 C79.67353822 -0.11774896 82.77418362 -0.05919442 86 1 C86 1.99 86 2.98 86 4 C58.28 3.67 30.56 3.34 2 3 C5.41965775 13.43184321 5.41965775 13.43184321 13.26513672 20.13867188 C18.8008753 22.79710666 24.47923152 22.53763075 30.51498795 22.4858551 C32.60963315 22.46842276 34.702919 22.47618871 36.7975769 22.4901123 C41.24014679 22.51531119 45.68238787 22.50996963 50.125 22.5 C55.28444973 22.48844172 60.44323034 22.48970672 65.60259628 22.52406311 C67.65798851 22.53112182 69.71230175 22.51453247 71.76760864 22.49694824 C83.3547974 22.55980132 83.3547974 22.55980132 88 27 C90.7533575 31.00704766 90.53703246 35.30935713 90 40 C88.23821593 44.26537197 86.1218918 46.02966818 82 48 C79.21723309 48.24184205 76.67836163 48.32336072 73.9050293 48.2487793 C73.10450638 48.23946381 72.30398346 48.23014832 71.47920227 48.22055054 C68.84376895 48.18628539 66.20926887 48.13037429 63.57421875 48.07421875 C61.74292464 48.04617455 59.91160932 48.01948533 58.08027649 47.99409485 C53.26808462 47.92374104 48.45640113 47.83500671 43.64459229 47.74243164 C38.73133508 47.65116182 33.81781962 47.5772914 28.90429688 47.50195312 C19.26919903 47.35165631 9.63454866 47.18193887 0 47 C0.33 46.34 0.66 45.68 1 45 C2.50550667 44.99786247 2.50550667 44.99786247 4.04142761 44.99568176 C13.5025726 44.9790084 22.96328765 44.93622457 32.42420483 44.86790943 C37.28815559 44.83362623 42.15179183 44.80852739 47.01586914 44.80444336 C51.71051355 44.80016325 56.40444826 44.77172464 61.09887123 44.72656822 C62.88936542 44.71358397 64.6799445 44.70928883 66.47047997 44.71384621 C68.98004039 44.71874581 71.48752146 44.69269119 73.99682617 44.65942383 C74.73625961 44.66804947 75.47569305 44.67667511 76.23753357 44.68556213 C80.12764806 44.59917585 81.86862113 44.1027713 84.96894836 41.67753601 C87.27690514 39.08501857 87.27690514 39.08501857 87.5 35.5 C86.98103819 31.86726731 86.21388255 29.89507718 84 27 C81.29551794 25.64775897 79.17647022 25.86786854 76.1484375 25.8581543 C74.91955811 25.85111984 73.69067871 25.84408539 72.42456055 25.83683777 C71.76531586 25.83502188 71.10607117 25.83320599 70.42684937 25.83133507 C68.3571364 25.82415679 66.2876588 25.808476 64.21801758 25.78999329 C58.33239162 25.73761902 52.4468886 25.68965318 46.56103516 25.67407227 C42.95987183 25.66391503 39.35929288 25.63438878 35.75836182 25.59275246 C34.39345753 25.5805369 33.02847028 25.57530373 31.66351318 25.57755089 C22.40818722 25.58902787 14.00682976 25.03595412 6.5625 19.03515625 C1.29139785 12.38038978 -0.0770504 8.42417728 0 0 Z " fill="#383E37" transform="translate(13,4)"/>
<path d="M0 0 C3.815625 -0.061875 7.63125 -0.12375 11.5625 -0.1875 C13.34636108 -0.22846802 13.34636108 -0.22846802 15.16625977 -0.27026367 C22.59709257 -0.32843923 27.90905291 0.06360027 33.5 5.375 C35 8 35 8 35 10.5625 C33.32603853 14.64278109 30.60557555 16.59628297 27 19 C27.51691406 19.61488281 28.03382813 20.22976562 28.56640625 20.86328125 C29.22511719 21.67152344 29.88382813 22.47976562 30.5625 23.3125 C31.22378906 24.11300781 31.88507813 24.91351563 32.56640625 25.73828125 C33.03949219 26.48464844 33.51257813 27.23101562 34 28 C33.505 29.485 33.505 29.485 33 31 C30.4375 31.5625 30.4375 31.5625 27 31 C23.78550522 27.76590464 21.04197814 24.08395627 19 20 C16.41394668 19.5316735 16.41394668 19.5316735 13.4375 19.375 C12.42558594 19.30023438 11.41367188 19.22546875 10.37109375 19.1484375 C9.19740234 19.07496094 9.19740234 19.07496094 8 19 C8.01160156 19.78246094 8.02320313 20.56492188 8.03515625 21.37109375 C8.04417969 22.38300781 8.05320313 23.39492187 8.0625 24.4375 C8.07410156 25.44683594 8.08570313 26.45617187 8.09765625 27.49609375 C8 30 8 30 7 31 C4.69 30.67 2.38 30.34 0 30 C0 20.1 0 10.2 0 0 Z M8 5 C8 7.97 8 10.94 8 14 C10.4377963 14.05397335 12.87439685 14.09365616 15.3125 14.125 C16.34793945 14.15013672 16.34793945 14.15013672 17.40429688 14.17578125 C21.17135396 14.21217794 22.78431704 14.14378864 26 12 C26.25030977 9.41619823 26.25030977 9.41619823 26 7 C22.29583874 4.62409858 19.07015427 4.79499714 14.75 4.875 C13.48671875 4.89304688 12.2234375 4.91109375 10.921875 4.9296875 C9.95765625 4.95289063 8.9934375 4.97609375 8 5 Z " fill="#050404" transform="translate(217,130)"/>
<path d="M0 0 C-0.33 1.65 -0.66 3.3 -1 5 C-2.95292969 4.94779297 -2.95292969 4.94779297 -4.9453125 4.89453125 C-6.67186204 4.86638099 -8.39842561 4.83908216 -10.125 4.8125 C-10.9809375 4.78736328 -11.836875 4.76222656 -12.71875 4.73632812 C-17.92687245 4.6762344 -21.48927445 5.08548697 -26 8 C-28.20355547 10.68258926 -27.99798738 12.03823987 -27.8125 15.5625 C-26.90828155 19.52558139 -26.90828155 19.52558139 -24 22 C-19.80042383 24.08073375 -16.34180929 24.21199644 -11.6875 24.125 C-10.43324219 24.10695312 -9.17898437 24.08890625 -7.88671875 24.0703125 C-6.93410156 24.04710937 -5.98148438 24.02390625 -5 24 C-5 22.02 -5 20.04 -5 18 C-6.093125 18.020625 -7.18625 18.04125 -8.3125 18.0625 C-12 18 -12 18 -15 17 C-14.67 15.68 -14.34 14.36 -14 13 C-11.52076199 12.97314905 -9.0418116 12.95323453 -6.5625 12.9375 C-5.85544922 12.92912109 -5.14839844 12.92074219 -4.41992188 12.91210938 C-2.61306441 12.90346412 -0.80612397 12.94779989 1 13 C2.87725894 14.87725894 2.21702304 17.92850307 2.25 20.4375 C2.27578125 21.61183594 2.3015625 22.78617188 2.328125 23.99609375 C2.21984375 24.98738281 2.1115625 25.97867188 2 27 C-4.94034056 31.6268937 -15.010364 30.89523812 -22.9609375 29.46875 C-28.34271348 27.98189297 -33.11909894 26.16818441 -36.1015625 21.14453125 C-37.64860743 17.45180226 -37.51998314 13.92724109 -37 10 C-34.83911456 4.89245259 -31.38119474 2.21615046 -26.47265625 -0.09375 C-19.35168257 -1.95209184 -6.76865058 -3.38432529 0 0 Z " fill="#050505" transform="translate(166,131)"/>
<path d="M0 0 C98.67 0 197.34 0 299 0 C299.33 0.66 299.66 1.32 300 2 C200.67 2.33 101.34 2.66 -1 3 C-0.67 2.01 -0.34 1.02 0 0 Z " fill="#76996B" transform="translate(13,168)"/>
<path d="M0 0 C3.5 0.125 3.5 0.125 4.5 1.125 C4.65714654 2.75756758 4.75085414 4.39635338 4.81640625 6.03515625 C4.87924805 7.51918945 4.87924805 7.51918945 4.94335938 9.03320312 C4.98267578 10.07412109 5.02199219 11.11503906 5.0625 12.1875 C5.10568359 13.23228516 5.14886719 14.27707031 5.19335938 15.35351562 C5.29981225 17.94386884 5.4018276 20.53432186 5.5 23.125 C8.52473695 24.72306407 10.5566495 25.39858459 14 25.375 C14.7528125 25.38015625 15.505625 25.3853125 16.28125 25.390625 C18.73711103 25.09661347 20.32983717 24.27156557 22.5 23.125 C22.52505615 22.4637915 22.5501123 21.80258301 22.57592773 21.12133789 C22.69153102 18.14317695 22.81441754 15.1653608 22.9375 12.1875 C22.97681641 11.14658203 23.01613281 10.10566406 23.05664062 9.03320312 C23.09853516 8.04384766 23.14042969 7.05449219 23.18359375 6.03515625 C23.22025146 5.11871338 23.25690918 4.20227051 23.29467773 3.25805664 C23.5 1.125 23.5 1.125 24.5 0.125 C27.5 0 27.5 0 30.5 0.125 C32.91748194 2.54248194 31.78171076 8.63186674 31.8125 11.875 C31.84150391 12.87789062 31.87050781 13.88078125 31.90039062 14.9140625 C31.96430669 22.32832626 31.96430669 22.32832626 29.69921875 26.21484375 C23.97978198 31.18252507 17.69928654 31.62725111 10.40625 31.40625 C5.02463513 30.88544856 1.05237033 29.84832408 -2.69921875 25.68359375 C-5.17280208 20.79544969 -4.97765271 16.70381858 -4.8125 11.3125 C-4.80283203 10.34634766 -4.79316406 9.38019531 -4.78320312 8.38476562 C-4.65036429 0.16608444 -4.65036429 0.16608444 0 0 Z " fill="#060605" transform="translate(57.5,129.875)"/>
<path d="M0 0 C1.93925795 3.54070678 3.87609121 7.08273433 5.8125 10.625 C6.35970703 11.62402344 6.90691406 12.62304688 7.47070312 13.65234375 C8.52601447 15.5838833 9.57712347 17.51772618 10.62353516 19.45410156 C11.43580635 20.95647191 12.25537992 22.45499903 13.09130859 23.94433594 C13.94921875 25.5234375 13.94921875 25.5234375 15 28 C14.505 29.485 14.505 29.485 14 31 C8.51219512 31.36585366 8.51219512 31.36585366 6.25 29.75 C5 28 5 28 3 24 C-2.61 24 -8.22 24 -14 24 C-14.99 25.98 -15.98 27.96 -17 30 C-20.31795996 31.24423499 -21.61281473 31.12906176 -25 30 C-23.56187027 23.56770214 -20.03409356 17.7919898 -17.00927734 11.97949219 C-16.12707562 10.24923297 -15.30256941 8.48980146 -14.48828125 6.7265625 C-14.03839844 5.82679688 -13.58851563 4.92703125 -13.125 4 C-12.75632812 3.21625 -12.38765625 2.4325 -12.0078125 1.625 C-8.55887991 -1.166354 -4.26156085 -0.28844407 0 0 Z M-6 7 C-6.84114171 8.43294498 -7.67265687 9.87154405 -8.5 11.3125 C-8.9640625 12.11300781 -9.428125 12.91351563 -9.90625 13.73828125 C-11.21767886 16.0314118 -11.21767886 16.0314118 -11 19 C-7.37 19 -3.74 19 0 19 C-0.78277836 15.08610821 -1.1408896 13.34885904 -3.0625 10.1875 C-3.701875 9.135625 -4.34125 8.08375 -5 7 C-5.33 7 -5.66 7 -6 7 Z " fill="#050505" transform="translate(298,130)"/>
<path d="M0 0 C2.98750246 0.0658662 4.30010811 0.16890482 6.42578125 2.3203125 C8.06196093 5.03959705 9.4263799 7.83175859 10.8125 10.6875 C11.60566186 12.12791985 12.40702702 13.56384126 13.21484375 14.99609375 C14.06093298 16.51765291 14.90598291 18.03979044 15.75 19.5625 C16.16443359 20.29976318 16.57886719 21.03702637 17.00585938 21.79663086 C17.38419922 22.50053955 17.76253906 23.20444824 18.15234375 23.9296875 C18.66849243 24.87110596 18.66849243 24.87110596 19.19506836 25.83154297 C19.96187827 28.13652081 19.58694511 29.42335195 18.8125 31.6875 C16 31.9375 16 31.9375 12.8125 31.6875 C10.54849988 29.42349988 9.82991456 27.73974368 8.8125 24.6875 C2.8725 24.3575 -3.0675 24.0275 -9.1875 23.6875 C-9.8475 25.6675 -10.5075 27.6475 -11.1875 29.6875 C-11.8475 30.3475 -12.5075 31.0075 -13.1875 31.6875 C-16.8125 31.3125 -16.8125 31.3125 -20.1875 30.6875 C-5.28805981 0.54032102 -5.28805981 0.54032102 0 0 Z M-1.1875 7.6875 C-2.02569158 9.30999941 -2.8579116 10.93558497 -3.6875 12.5625 C-4.1515625 13.46742188 -4.615625 14.37234375 -5.09375 15.3046875 C-6.32655589 17.55346859 -6.32655589 17.55346859 -6.1875 19.6875 C-2.2275 19.6875 1.7325 19.6875 5.8125 19.6875 C5.01440089 16.49510355 4.22612874 14.29452336 2.75 11.4375 C2.20666016 10.37789062 2.20666016 10.37789062 1.65234375 9.296875 C1.37519531 8.76578125 1.09804687 8.2346875 0.8125 7.6875 C0.1525 7.6875 -0.5075 7.6875 -1.1875 7.6875 Z " fill="#040303" transform="translate(191.1875,129.3125)"/>
<path d="M0 0 C3.5 0.125 3.5 0.125 4.5 1.125 C4.65764405 2.90369726 4.75100677 4.68818476 4.81640625 6.47265625 C4.87924805 8.09204102 4.87924805 8.09204102 4.94335938 9.74414062 C4.98267578 10.88044922 5.02199219 12.01675781 5.0625 13.1875 C5.10568359 14.32767578 5.14886719 15.46785156 5.19335938 16.64257812 C5.29982738 19.46989508 5.40045262 22.29743092 5.5 25.125 C11.44 25.455 17.38 25.785 23.5 26.125 C23.83 27.445 24.16 28.765 24.5 30.125 C22.73011735 31.89488265 20.18034582 31.25529068 17.78515625 31.2578125 C16.62435547 31.25910156 15.46355469 31.26039063 14.26757812 31.26171875 C13.04490234 31.25785156 11.82222656 31.25398438 10.5625 31.25 C9.34369141 31.25386719 8.12488281 31.25773437 6.86914062 31.26171875 C5.12600586 31.25978516 5.12600586 31.25978516 3.34765625 31.2578125 C2.27523682 31.25668457 1.20281738 31.25555664 0.09790039 31.25439453 C-2.5 31.125 -2.5 31.125 -4.5 30.125 C-4.52465746 26.0132744 -4.54283959 21.90157722 -4.55493164 17.78979492 C-4.5599708 16.39004772 -4.56680216 14.9903058 -4.57543945 13.59057617 C-4.5875232 11.58254223 -4.59269807 9.57447043 -4.59765625 7.56640625 C-4.60289307 6.35670166 -4.60812988 5.14699707 -4.61352539 3.90063477 C-4.44480133 -0.22457777 -4.24733448 0.15169052 0 0 Z " fill="#0F0E0E" transform="translate(102.5,129.875)"/>
<path d="M0 0 C2.65057077 2.48713075 3.03234922 4.54048192 3.1875 8.125 C2.92229607 12.5737959 1.93597531 15.04918428 -1.4375 18.125 C-4.6686773 19.74058865 -7.94411249 19.70053894 -11.4375 19.125 C-14.36560972 17.13139338 -15.94119764 15.62623757 -17.06640625 12.22265625 C-17.9434767 7.41261724 -17.27577391 4.23560359 -14.4375 0.125 C-9.93587711 -3.41198941 -4.74939464 -2.5905789 0 0 Z " fill="#84A37B" transform="translate(167.4375,185.875)"/>
<path d="M0 0 C2.536875 -0.103125 5.07375 -0.20625 7.6875 -0.3125 C8.47729248 -0.35802002 9.26708496 -0.40354004 10.08081055 -0.45043945 C14.20444448 -0.53125413 15.62953429 -0.28899201 19.01953125 2.35546875 C21 5 21 5 21 7.625 C19.96457415 10.08413639 19.11590587 11.39191154 17 13 C16.34 13 15.68 13 15 13 C15.3609375 13.55429688 15.721875 14.10859375 16.09375 14.6796875 C16.5578125 15.40414062 17.021875 16.12859375 17.5 16.875 C18.19609375 17.95394531 18.19609375 17.95394531 18.90625 19.0546875 C20 21 20 21 20 23 C18.25 22.9375 18.25 22.9375 16 22 C15.443125 20.845 14.88625 19.69 14.3125 18.5 C13.42167051 16.5518622 13.42167051 16.5518622 12 15 C8.8775126 14.05297176 6.30872971 14.04865779 3 14 C3 16.97 3 19.94 3 23 C2.01 23 1.02 23 0 23 C0 15.41 0 7.82 0 0 Z " fill="#EBF0EA" transform="translate(269,183)"/>
<path d="M0 0 C2.5575 -0.061875 5.115 -0.12375 7.75 -0.1875 C8.94834473 -0.22846802 8.94834473 -0.22846802 10.17089844 -0.27026367 C13.34572251 -0.3074499 15.64800432 -0.18319272 18.484375 1.29296875 C20 3 20 3 20.5 6.5 C20 10 20 10 18 11.9375 C17.34 12.288125 16.68 12.63875 16 13 C16.433125 14.0828125 16.433125 14.0828125 16.875 15.1875 C17.91666667 17.79166667 18.95833333 20.39583333 20 23 C18.25 22.9375 18.25 22.9375 16 22 C15.443125 20.845 14.88625 19.69 14.3125 18.5 C13.42167051 16.5518622 13.42167051 16.5518622 12 15 C8.8775126 14.05297176 6.30872971 14.04865779 3 14 C3 16.97 3 19.94 3 23 C2.01 23 1.02 23 0 23 C0 15.41 0 7.82 0 0 Z " fill="#F2F5F1" transform="translate(122,183)"/>
<path d="M0 0 C14.19642857 -0.53571429 14.19642857 -0.53571429 17.8125 1.9375 C20 4 20 4 21 5 C20.875 8.375 20.875 8.375 20 12 C16.24645152 14.97976091 13.39993929 15.34285514 8.6875 15.1875 C7.08455078 15.14689453 7.08455078 15.14689453 5.44921875 15.10546875 C4.64097656 15.07066406 3.83273438 15.03585938 3 15 C3 17.97 3 20.94 3 24 C2.01 24 1.02 24 0 24 C0 16.08 0 8.16 0 0 Z " fill="#DDE6DA" transform="translate(37,182)"/>
<path d="M0 0 C3.5578125 -0.12375 3.5578125 -0.12375 7.1875 -0.25 C7.92508545 -0.28641602 8.6626709 -0.32283203 9.42260742 -0.36035156 C12.98919383 -0.42007563 14.90162764 -0.06097783 17.94921875 1.828125 C20 4 20 4 20.625 7 C20 10 20 10 18.25 12.375 C13.29290434 14.85354783 8.44231023 14.31247714 3 14 C3 16.97 3 19.94 3 23 C2.01 23 1.02 23 0 23 C0 15.41 0 7.82 0 0 Z " fill="#E7EDE6" transform="translate(96,183)"/>
<path d="M0 0 C8.87323944 -0.47323944 8.87323944 -0.47323944 13.125 1.3125 C15.71126004 5.01947273 15.70626626 7.97828919 15.46875 12.42578125 C15 15 15 15 13.125 17.6875 C8.5901272 19.59214658 4.9002035 19.26134419 0 19 C0 12.73 0 6.46 0 0 Z " fill="#82A179" transform="translate(219,185)"/>
<path d="M0 0 C2.64 0 5.28 0 8 0 C8.02465622 4.25414623 8.04283899 8.50825498 8.05493164 12.76245117 C8.05997101 14.21070073 8.06680253 15.65894517 8.07543945 17.10717773 C8.08752247 19.18474588 8.09323211 21.26224697 8.09765625 23.33984375 C8.10289307 24.59144287 8.10812988 25.84304199 8.11352539 27.13256836 C8 30 8 30 7 31 C4.69 30.67 2.38 30.34 0 30 C0 20.1 0 10.2 0 0 Z " fill="#080707" transform="translate(259,130)"/>
<path d="M0 0 C1.27069163 0.00138269 1.27069163 0.00138269 2.56705379 0.00279331 C3.53605618 0.00141865 4.50505856 0.00004398 5.50342464 -0.00137234 C7.11103413 0.00402058 7.11103413 0.00402058 8.75112057 0.00952244 C10.43383053 0.0093034 10.43383053 0.0093034 12.15053463 0.00907993 C15.87866266 0.00977963 19.60674144 0.01757468 23.3348608 0.02539158 C25.91175973 0.02725556 28.48865902 0.02867955 31.06555843 0.0296793 C37.16770571 0.03311441 43.26983249 0.04100523 49.37197202 0.05102879 C56.31744705 0.06219094 63.26292291 0.06770063 70.20840466 0.07272422 C84.49926422 0.08318787 98.79010875 0.10078668 113.08095455 0.12304783 C113.57595455 1.11304783 113.57595455 1.11304783 114.08095455 2.12304783 C111.11712951 2.97647466 108.47954543 3.25040575 105.39940548 3.2567606 C104.46282604 3.26102558 103.5262466 3.26529057 102.56128597 3.26968479 C101.54087719 3.26923161 100.52046841 3.26877842 99.46913815 3.2683115 C98.38912029 3.27167011 97.30910244 3.27502872 96.19635677 3.27848911 C92.62402353 3.28799383 89.05173715 3.28994171 85.47939205 3.29101658 C83.00125261 3.29422848 80.52311336 3.2975925 78.04497433 3.30110264 C72.85155961 3.30709199 67.65816154 3.30894263 62.46474361 3.30835056 C57.12193336 3.30826898 51.77921378 3.31488445 46.4364233 3.32885838 C39.99332009 3.3454724 33.5502818 3.35240817 27.10715771 3.35174084 C24.64706843 3.35292462 22.18697855 3.35736853 19.72690105 3.3650732 C16.29585114 3.37481609 12.86503517 3.37201814 9.4339819 3.36596775 C8.40952465 3.37158726 7.38506741 3.37720676 6.329566 3.38299656 C5.39862621 3.37880207 4.46768642 3.37460758 3.50853634 3.37028599 C2.69702303 3.37083076 1.88550972 3.37137552 1.0494051 3.3719368 C-0.91904545 3.12304783 -0.91904545 3.12304783 -2.91904545 1.12304783 C-1.91904545 0.12304783 -1.91904545 0.12304783 0 0 Z " fill="#303130" transform="translate(106.91904544830322,3.8769521713256836)"/>
<path d="M0 0 C0.99 0 1.98 0 3 0 C3 6.93 3 13.86 3 21 C30.06 21 57.12 21 85 21 C82.4880141 23.5119859 80.97367159 23.23524138 77.54733276 23.24884033 C76.78776276 23.24164978 76.02819275 23.23445923 75.24560547 23.22705078 C74.44552063 23.22734283 73.64543579 23.22763489 72.82110596 23.22793579 C70.16969047 23.22653956 67.51855406 23.2109647 64.8671875 23.1953125 C63.03158726 23.19158341 61.19598502 23.18873595 59.36038208 23.18673706 C54.52372768 23.1790924 49.68719297 23.1594368 44.85058594 23.1373291 C39.91733418 23.11688857 34.98406313 23.10773919 30.05078125 23.09765625 C20.36713485 23.07619167 10.68357737 23.04204572 1 23 C-0.2263757 20.54724859 -0.11415314 18.9494219 -0.09765625 16.2109375 C-0.09443359 15.26992187 -0.09121094 14.32890625 -0.08789062 13.359375 C-0.07951172 12.37453125 -0.07113281 11.3896875 -0.0625 10.375 C-0.05798828 9.38242188 -0.05347656 8.38984375 -0.04882812 7.3671875 C-0.03702145 4.9113984 -0.020554 2.45572896 0 0 Z " fill="#141913" transform="translate(199,96)"/>
<path d="M0 0 C0.33 0 0.66 0 1 0 C1 21.45 1 42.9 1 65 C7.6 65 14.2 65 21 65 C21 50.48 21 35.96 21 21 C22.65 21 24.3 21 26 21 C25.01 21.33 24.02 21.66 23 22 C23.00222061 22.54901474 23.00444122 23.09802948 23.00672913 23.66368103 C23.02878358 29.35707959 23.04390726 35.0504661 23.05493164 40.74389648 C23.05997298 42.87118014 23.06680591 44.99846031 23.07543945 47.12573242 C23.08751379 50.17627826 23.09323014 53.22677845 23.09765625 56.27734375 C23.10281754 57.23462875 23.10797882 58.19191376 23.11329651 59.1782074 C23.11340981 60.49946373 23.11340981 60.49946373 23.11352539 61.84741211 C23.115746 62.62684677 23.11796661 63.40628143 23.12025452 64.20933533 C23 66 23 66 22 67 C14.74 67 7.48 67 0 67 C0 44.89 0 22.78 0 0 Z " fill="#252A24" transform="translate(14,52)"/>
<path d="M0 0 C15.12942542 -0.46314568 15.12942542 -0.46314568 21.375 5.125 C23.64766754 9.14587334 23.9186815 12.48578918 23 17 C21.62068983 19.76992615 20.42310027 20.89997977 18 23 C15.1875 23.375 15.1875 23.375 13 23 C13.825 22.401875 14.65 21.80375 15.5 21.1875 C18.24502481 18.47375753 18.44692576 16.1688501 18.5625 12.375 C18.58352781 8.3702572 18.58352781 8.3702572 16.32421875 5.23828125 C13.61139783 3.79296321 11.28338638 3.28195265 8.25 2.8125 C6.5175 2.544375 4.785 2.27625 3 2 C3 8.93 3 15.86 3 23 C5.97 23 8.94 23 12 23 C12 23.33 12 23.66 12 24 C8.04 24 4.08 24 0 24 C0 16.08 0 8.16 0 0 Z " fill="#E6EDE4" transform="translate(215,182)"/>
<path d="M0 0 C4.3723549 2.14642877 7.26023287 4.39473407 9 9 C9.20290934 13.6415512 8.59860387 17.04223381 6.125 21 C2.16160741 24.73025185 -2.17254122 24.27905618 -7.3359375 24.2109375 C-10.71577798 23.9433255 -12.51447244 23.33018209 -15 21 C-17.61525329 16.94184834 -18.70124748 13.80855413 -18 9 C-13.53921159 0.87499254 -9.01246175 -1.28139267 0 0 Z M-12 4 C-14.83827391 8.11060359 -15.5059767 11.28761724 -14.62890625 16.09765625 C-13.50369764 19.50123757 -11.92810972 21.00639338 -9 23 C-6.19157394 23.64111544 -3.80979467 23.63007517 -1 23 C1.8100346 21.20636089 3.50940468 19.98119065 5 17 C5.56096526 12.98803329 6.10678522 8.79062037 3.90625 5.23046875 C1.18772414 2.72161643 -0.99296253 2.00084935 -4.625 1.5625 C-8.65114212 2.01706129 -8.65114212 2.01706129 -12 4 Z " fill="#F0F3EE" transform="translate(165,182)"/>
<path d="M0 0 C27.06 0 54.12 0 82 0 C81.67 0.99 81.34 1.98 81 3 C53.94 2.67 26.88 2.34 -1 2 C-0.67 1.34 -0.34 0.68 0 0 Z " fill="#465145" transform="translate(14,49)"/>
<path d="M0 0 C0.99 0 1.98 0 3 0 C3.96238036 2.03976214 4.91972527 4.08190046 5.875 6.125 C6.40867188 7.26195312 6.94234375 8.39890625 7.4921875 9.5703125 C8.858743 12.67869521 9.98629528 15.76204996 11 19 C14.05345704 15.44221823 15.53403364 11.56942569 17.1875 7.25 C17.46013672 6.55261719 17.73277344 5.85523438 18.01367188 5.13671875 C18.68131025 3.42662746 19.34141552 1.71359846 20 0 C20.99 0 21.98 0 23 0 C22.40227336 3.43493576 21.52472216 6.44231496 20.15234375 9.64453125 C19.61577148 10.90620117 19.61577148 10.90620117 19.06835938 12.19335938 C18.50858398 13.48983398 18.50858398 13.48983398 17.9375 14.8125 C17.56044922 15.69615234 17.18339844 16.57980469 16.79492188 17.49023438 C15.86751446 19.66201124 14.93576366 21.83181367 14 24 C12.35 24 10.7 24 9 24 C7.4943349 20.37732706 5.99643454 16.75149451 4.5 13.125 C4.07074219 12.09246094 3.64148438 11.05992187 3.19921875 9.99609375 C2.79316406 9.00996094 2.38710937 8.02382812 1.96875 7.0078125 C1.59169922 6.09660645 1.21464844 5.18540039 0.82617188 4.24658203 C0 2 0 2 0 0 Z " fill="#EBF0E9" transform="translate(176,182)"/>
<path d="M0 0 C10.05679513 -0.45030426 10.05679513 -0.45030426 14 3 C15 5 15 5 15 7 C13.15840327 9.48615558 11.99529289 10.00156904 9 11 C7.43881572 11.06740865 5.8749748 11.08514456 4.3125 11.0625 C2.889375 11.041875 1.46625 11.02125 0 11 C0 7.37 0 3.74 0 0 Z " fill="#86A57E" transform="translate(272,184)"/>
<path d="M0 0 C1.77049689 -0.05410687 3.54146849 -0.09284119 5.3125 -0.125 C6.29863281 -0.14820313 7.28476563 -0.17140625 8.30078125 -0.1953125 C11 0 11 0 14 2 C14.4375 4.4375 14.4375 4.4375 14 7 C11.79958043 9.13465991 10.49097299 9.94420762 7.421875 10.29296875 C6.54015625 10.25816406 5.6584375 10.22335938 4.75 10.1875 C3.1825 10.125625 1.615 10.06375 0 10 C0 6.7 0 3.4 0 0 Z " fill="#82A279" transform="translate(125,185)"/>
<path d="M0 0 C1.77007714 -0.08114106 3.54122098 -0.13925505 5.3125 -0.1875 C6.29863281 -0.22230469 7.28476563 -0.25710937 8.30078125 -0.29296875 C11 0 11 0 12.86328125 1.3515625 C14 3 14 3 13.875 5.5625 C13 8 13 8 10 10 C6.64683663 10.26402861 3.36941342 10.08751723 0 10 C0 6.7 0 3.4 0 0 Z " fill="#82A279" transform="translate(99,185)"/>
<path d="M0 0 C1.77007714 -0.08114106 3.54122098 -0.13925505 5.3125 -0.1875 C6.29863281 -0.22230469 7.28476562 -0.25710937 8.30078125 -0.29296875 C11 0 11 0 12.86328125 1.3515625 C14 3 14 3 13.875 5.5625 C13 8 13 8 10 10 C6.64683663 10.26402861 3.36941342 10.08751723 0 10 C0 6.7 0 3.4 0 0 Z " fill="#83A27A" transform="translate(41,185)"/>
<path d="M0 0 C17.49 0.33 34.98 0.66 53 1 C53 1.66 53 2.32 53 3 C27.755 3.495 27.755 3.495 2 4 C2 3.34 2 2.68 2 2 C1.34 2 0.68 2 0 2 C0 1.34 0 0.68 0 0 Z " fill="#484F47" transform="translate(229,48)"/>
<path d="M0 0 C0.33 0.66 0.66 1.32 1 2 C27.4 2 53.8 2 81 2 C81 2.33 81 2.66 81 3 C79.97571396 3.00808685 78.95142792 3.01617371 77.89610291 3.02450562 C68.22966743 3.1020866 58.56337063 3.18985595 48.89711666 3.28752708 C43.92794 3.33741187 38.9587838 3.38374255 33.98950195 3.421875 C29.19130901 3.45882661 24.3932905 3.50521325 19.59524727 3.55806351 C17.76732006 3.57655504 15.93935553 3.59168222 14.11137199 3.60334396 C11.54534019 3.62029636 8.97970333 3.64935255 6.41381836 3.68115234 C5.28740181 3.68439262 5.28740181 3.68439262 4.13822937 3.68769836 C-0.58192278 3.76212425 -4.51198658 4.52105759 -9 6 C-9.66 5.34 -10.32 4.68 -11 4 C-7.37 2.68 -3.74 1.36 0 0 Z " fill="#2C312B" transform="translate(229,4)"/>
<path d="M0 0 C13.81776765 3.66970387 13.81776765 3.66970387 19 9 C16 10 16 10 13.625 9.0390625 C12.75875 8.57242188 11.8925 8.10578125 11 7.625 C6.45221496 5.20222166 3.06513666 3.88245994 -2.11401367 3.79467773 C-3.67529243 3.7647599 -3.67529243 3.7647599 -5.26811218 3.73423767 C-6.39006485 3.71752518 -7.51201752 3.70081268 -8.66796875 3.68359375 C-9.81791824 3.66281265 -10.96786774 3.64203156 -12.15266418 3.62062073 C-15.83088125 3.55516658 -19.50917048 3.49625926 -23.1875 3.4375 C-25.67904396 3.39431087 -28.17058059 3.35069645 -30.66210938 3.30664062 C-36.77466301 3.19948939 -42.88728864 3.09771517 -49 3 C-49 2.67 -49 2.34 -49 2 C-32.83 2 -16.66 2 0 2 C0 1.34 0 0.68 0 0 Z " fill="#242A22" transform="translate(282,49)"/>
<path d="M0 0 C7.26 0 14.52 0 22 0 C22 0.33 22 0.66 22 1 C18.7 1 15.4 1 12 1 C12 8.26 12 15.52 12 23 C11.01 23 10.02 23 9 23 C9 16.07 9 9.14 9 2 C6.03 2 3.06 2 0 2 C0 1.34 0 0.68 0 0 Z " fill="#EAEFE8" transform="translate(60,183)"/>
<path d="M0 0 C5.61 0 11.22 0 17 0 C17 0.33 17 0.66 17 1 C12.05 1 7.1 1 2 1 C2 4.3 2 7.6 2 11 C6.29 11 10.58 11 15 11 C15 11.33 15 11.66 15 12 C10.71 12 6.42 12 2 12 C2 15.3 2 18.6 2 22 C7.28 22 12.56 22 18 22 C18 22.33 18 22.66 18 23 C12.06 23 6.12 23 0 23 C0 15.41 0 7.82 0 0 Z " fill="#FCFDFC" transform="translate(245,183)"/>
<path d="M0 0 C4.62 0 9.24 0 14 0 C14 0.33 14 0.66 14 1 C10.37 1 6.74 1 3 1 C3 4.63 3 8.26 3 12 C5.97 12 8.94 12 12 12 C12 12.33 12 12.66 12 13 C9.03 13 6.06 13 3 13 C3 16.3 3 19.6 3 23 C2.01 23 1.02 23 0 23 C0 15.41 0 7.82 0 0 Z " fill="#FAFBFA" transform="translate(269,183)"/>
<path d="M0 0 C7.14928343 6.75210101 11.54674869 13.92156459 12.18359375 23.8671875 C12.18697361 26.25336898 12.13683295 28.61809307 12 31 C11.01 30.67 10.02 30.34 9 30 C8.97421875 29.31035156 8.9484375 28.62070313 8.921875 27.91015625 C8.34796912 18.40157931 5.52406209 11.73368692 0 4 C-0.66 3.01 -1.32 2.02 -2 1 C-1.34 0.67 -0.68 0.34 0 0 Z " fill="#2F372E" transform="translate(301,58)"/>
<path d="M0 0 C0.66 0 1.32 0 2 0 C1.89300781 0.73605469 1.78601563 1.47210938 1.67578125 2.23046875 C0.83287767 8.27820649 0.83287767 8.27820649 2.3125 14.0625 C6.1707935 18.49239254 8.25500533 18.44403277 14 19 C14 19.33 14 19.66 14 20 C4.0625 20.58455882 4.0625 20.58455882 0 17 C-2.6227571 12.93020449 -3.61569457 9.82294079 -3 5 C-1.625 2.125 -1.625 2.125 0 0 Z " fill="#F5F7F4" transform="translate(150,186)"/>
<path d="M0 0 C2.65696068 0.15182632 4.44234524 0.47324024 6.41015625 2.33203125 C9.63182392 6.19239688 11.25575795 8.33630225 10.8125 13.3125 C10.26243609 17.58237114 9.35366316 20.09953456 6 23 C2.75 23.8125 2.75 23.8125 0 24 C0 23.34 0 22.68 0 22 C0.94875 21.5875 1.8975 21.175 2.875 20.75 C5.95042763 19.27684679 5.95042763 19.27684679 7.4375 17.25 C8.47801111 13.08795555 7.78946885 9.39096892 5.6875 5.6875 C3.90601157 3.90601157 2.31771094 2.9590528 0 2 C0 1.34 0 0.68 0 0 Z " fill="#273025" transform="translate(280,72)"/>
<path d="M0 0 C0.99 0 1.98 0 3 0 C2.28273355 4.45915047 0.81528908 8.55733234 -0.8125 12.75 C-1.06064453 13.43449219 -1.30878906 14.11898437 -1.56445312 14.82421875 C-2.33203125 16.796875 -2.33203125 16.796875 -4 20 C-6.19921875 20.953125 -6.19921875 20.953125 -8 21 C-6.48728707 16.28562282 -4.73227046 11.71041415 -2.875 7.125 C-2.59785156 6.43664062 -2.32070312 5.74828125 -2.03515625 5.0390625 C-1.35835767 3.35873499 -0.67940197 1.67927658 0 0 Z " fill="#E9EEE7" transform="translate(196,182)"/>
<path d="M0 0 C1.61021994 4.83065982 -0.83006253 8.58434946 -3 13 C-6.01663646 17.90333005 -9.92809252 20.51189444 -15 23 C-15.66 23 -16.32 23 -17 23 C-15.74528499 19.23585497 -14.11289025 18.90619548 -10.77734375 17.078125 C-5.37596502 13.80168428 -4.16431521 8.88868873 -2.7109375 3.109375 C-2 1 -2 1 0 0 Z " fill="#242B21" transform="translate(312,5)"/>
<path d="M0 0 C0.66 0 1.32 0 2 0 C2.75166913 7.69118596 3.13690844 15.27227893 3 23 C2.01 23 1.02 23 0 23 C0 15.41 0 7.82 0 0 Z " fill="#F8FAF8" transform="translate(96,183)"/>
<path d="M0 0 C2.5 1.1875 2.5 1.1875 4.5 3.1875 C4.03846154 9.64903846 4.03846154 9.64903846 1.5 12.1875 C-1.625 12.3125 -1.625 12.3125 -4.5 12.1875 C-2.85 10.8675 -1.2 9.5475 0.5 8.1875 C0.14950425 4.94541433 -0.06221181 3.57222296 -2.5625 1.375 C-3.201875 0.983125 -3.84125 0.59125 -4.5 0.1875 C-2.5 -0.8125 -2.5 -0.8125 0 0 Z " fill="#EEF2ED" transform="translate(53.5,183.8125)"/>
<path d="M0 0 C2.0625 0.4375 2.0625 0.4375 4 1 C3.01 1.33 2.02 1.66 1 2 C1 8.6 1 15.2 1 22 C0.34 22 -0.32 22 -1 22 C-1.02887814 18.52085059 -1.04675687 15.04173169 -1.0625 11.5625 C-1.07087891 10.56927734 -1.07925781 9.57605469 -1.08789062 8.55273438 C-1.09111328 7.60849609 -1.09433594 6.66425781 -1.09765625 5.69140625 C-1.10289307 4.81685791 -1.10812988 3.94230957 -1.11352539 3.04125977 C-1 1 -1 1 0 0 Z " fill="#1F1E1E" transform="translate(82,130)"/>
<path d="M0 0 C0 3.10551666 -0.5393715 4.35261084 -2 7 C-2.12375 6.195625 -2.2475 5.39125 -2.375 4.5625 C-2.58125 3.716875 -2.7875 2.87125 -3 2 C-5.56893838 0.71553081 -7.76576337 0.67022856 -10.625 0.4375 C-11.62789062 0.35371094 -12.63078125 0.26992187 -13.6640625 0.18359375 C-14.43492188 0.12300781 -15.20578125 0.06242188 -16 0 C-16 3.3 -16 6.6 -16 10 C-16.33 10 -16.66 10 -17 10 C-17 6.37 -17 2.74 -17 -1 C-15.10590022 -1.22354607 -13.2095652 -1.42819951 -11.3125 -1.625 C-9.72888672 -1.79902344 -9.72888672 -1.79902344 -8.11328125 -1.9765625 C-4.86283654 -2.0010326 -2.89769204 -1.40852563 0 0 Z " fill="#D5E0D2" transform="translate(141,185)"/>
<path d="M0 0 C10.23 0 20.46 0 31 0 C31.33 0.66 31.66 1.32 32 2 C29.84891646 2.69141971 28.43067214 3.1090793 26.21191406 2.54711914 C23.56327424 1.89197545 21.08588804 1.78511285 18.359375 1.68359375 C17.28945312 1.64169922 16.21953125 1.59980469 15.1171875 1.55664062 C14.00601563 1.51732422 12.89484375 1.47800781 11.75 1.4375 C10.06003906 1.37272461 10.06003906 1.37272461 8.3359375 1.30664062 C5.55741046 1.20067985 2.77879609 1.09860858 0 1 C0 0.67 0 0.34 0 0 Z " fill="#282A28" transform="translate(189,4)"/>
<path d="M0 0 C1.02867187 0.433125 1.02867187 0.433125 2.078125 0.875 C6.38049084 2.53152588 10.80536514 3.72889403 15.234375 5 C18 6 18 6 19 8 C11.58783319 7.64134677 6.43520528 5.64079463 0 2 C0 1.34 0 0.68 0 0 Z " fill="#222721" transform="translate(214,66)"/>
<path d="M0 0 C0.99 0.33 1.98 0.66 3 1 C-7.38817286 11.85216073 -7.38817286 11.85216073 -13.3125 12.1875 C-14.6428125 12.0946875 -14.6428125 12.0946875 -16 12 C-12.55167303 9.70111535 -8.97697824 7.68036561 -5.375 5.6328125 C-2.96863248 3.97843483 -1.59453824 2.42327851 0 0 Z " fill="#2A3029" transform="translate(116,59)"/>
<path d="M0 0 C5.84474908 1.94824969 10.12031942 4.23857955 15 8 C14.67 8.99 14.34 9.98 14 11 C13.40832031 10.59007812 12.81664063 10.18015625 12.20703125 9.7578125 C11.41683594 9.21898437 10.62664062 8.68015625 9.8125 8.125 C9.03519531 7.59132813 8.25789063 7.05765625 7.45703125 6.5078125 C5.0323391 5.01984561 2.6666501 3.97571922 0 3 C0 2.01 0 1.02 0 0 Z " fill="#242B23" transform="translate(99,5)"/>
<path d="M0 0 C4.16915278 1.38971759 4.69511721 3.49568259 6.75 7.3125 C7.38421875 8.46363281 8.0184375 9.61476562 8.671875 10.80078125 C10.06502522 14.15663429 10.05119104 14.75442567 9 18 C7.49480613 15.37785672 5.99568681 12.75255792 4.5 10.125 C3.85611328 9.00544922 3.85611328 9.00544922 3.19921875 7.86328125 C2.79316406 7.14785156 2.38710938 6.43242187 1.96875 5.6953125 C1.59169922 5.03547363 1.21464844 4.37563477 0.82617188 3.69580078 C0 2 0 2 0 0 Z " fill="#101010" transform="translate(300,138)"/>
<path d="M0 0 C4.00055301 3.66717359 6.66825595 7.06746451 9 12 C8.75 14.4375 8.75 14.4375 8 16 C7.73445313 15.43410156 7.46890625 14.86820313 7.1953125 14.28515625 C5.49316041 11.03104196 3.35542688 8.11906253 1.2421875 5.12109375 C0 3 0 3 0 0 Z " fill="#232B22" transform="translate(114,14)"/>
<path d="M0 0 C0.99 0.33 1.98 0.66 3 1 C3.6875 3.0625 3.6875 3.0625 4 5 C5.32 5.33 6.64 5.66 8 6 C7.67 6.66 7.34 7.32 7 8 C5.35 8 3.7 8 2 8 C0.74335022 5.09399739 0 3.20395416 0 0 Z " fill="#F6F8F5" transform="translate(183,198)"/>
<path d="M0 0 C0.51949219 0.33773438 1.03898437 0.67546875 1.57421875 1.0234375 C5.28848007 3.39891701 8.80400915 5.55762815 13 7 C12.67 7.66 12.34 8.32 12 9 C10.3725363 8.38144369 8.74809644 7.75492695 7.125 7.125 C6.22007813 6.77695312 5.31515625 6.42890625 4.3828125 6.0703125 C2 5 2 5 0 3 C0 2.01 0 1.02 0 0 Z " fill="#252924" transform="translate(20,20)"/>
<path d="M0 0 C0.66 0.99 1.32 1.98 2 3 C0.19587357 6.26460973 -0.83394693 7.88929795 -4 10 C-4.99 9.67 -5.98 9.34 -7 9 C-6.57847656 8.51789062 -6.15695313 8.03578125 -5.72265625 7.5390625 C-5.17480469 6.90742187 -4.62695312 6.27578125 -4.0625 5.625 C-3.51722656 4.99851562 -2.97195312 4.37203125 -2.41015625 3.7265625 C-0.93041376 2.04367666 -0.93041376 2.04367666 0 0 Z " fill="#2D362C" transform="translate(101,41)"/>
<path d="M0 0 C0.99 0.33 1.98 0.66 3 1 C3 3.64 3 6.28 3 9 C2.01 8.67 1.02 8.34 0 8 C0 5.36 0 2.72 0 0 Z " fill="#3E463D" transform="translate(310,80)"/>
<path d="M0 0 C1.33804688 0.04060547 1.33804688 0.04060547 2.703125 0.08203125 C3.37859375 0.11683594 4.0540625 0.15164062 4.75 0.1875 C4.75 0.5175 4.75 0.8475 4.75 1.1875 C3.5125 1.31125 2.275 1.435 1 1.5625 C-2.11247204 1.95362481 -4.60647058 2.38989999 -7.25 4.1875 C-7.58 4.8475 -7.91 5.5075 -8.25 6.1875 C-8.58 5.1975 -8.91 4.2075 -9.25 3.1875 C-6.10408067 0.38704377 -4.182936 -0.16511589 0 0 Z " fill="#DBE4D8" transform="translate(160.25,181.8125)"/>
<path d="M0 0 C0.33 0.99 0.66 1.98 1 3 C-0.1875 4.5 -0.1875 4.5 -2 6 C-4.6875 6.1875 -4.6875 6.1875 -7 6 C-2.25 1.125 -2.25 1.125 0 0 Z " fill="#EEF2ED" transform="translate(235,199)"/>
<path d="M0 0 C3.63 0.33 7.26 0.66 11 1 C10.67 1.66 10.34 2.32 10 3 C7.35139573 3.59355614 4.70802678 3.74209269 2 4 C2 3.34 2 2.68 2 2 C1.34 2 0.68 2 0 2 C0 1.34 0 0.68 0 0 Z " fill="#475341" transform="translate(229,48)"/>
<path d="M0 0 C0.99 0 1.98 0 3 0 C7 4.34285714 7 4.34285714 7 7 C7.66 7.33 8.32 7.66 9 8 C6.64277278 7.82539058 5.30294138 7.3003668 3.62109375 5.6328125 C0 1.32051282 0 1.32051282 0 0 Z " fill="#2C352B" transform="translate(222,43)"/>
<path d="M0 0 C-0.66 0 -1.32 0 -2 0 C-2 0.66 -2 1.32 -2 2 C-4.31 2.66 -6.62 3.32 -9 4 C-9.66 3.34 -10.32 2.68 -11 2 C-3.57142857 -1.57142857 -3.57142857 -1.57142857 0 0 Z " fill="#353A34" transform="translate(229,6)"/>
<path d="M0 0 C0.33 0 0.66 0 1 0 C1.3125 2.8125 1.3125 2.8125 1 6 C-1.5 7.875 -1.5 7.875 -4 9 C-3.67 7.68 -3.34 6.36 -3 5 C-2.34 5 -1.68 5 -1 5 C-0.67 3.35 -0.34 1.7 0 0 Z " fill="#F4F7F3" transform="translate(141,187)"/>
<path d="M0 0 C3.96 0.99 3.96 0.99 8 2 C8 2.66 8 3.32 8 4 C4.7 3.67 1.4 3.34 -2 3 C-1.34 2.67 -0.68 2.34 0 2 C0 1.34 0 0.68 0 0 Z " fill="#2A2E24" transform="translate(282,49)"/>
<path d="M0 0 C1.5 1 1.5 1 3 3 C3.27345479 5.71846235 3.13491285 8.25677199 3 11 C0.82905523 8.82905523 0.5137 7.84247144 -0.1875 4.9375 C-0.36667969 4.22464844 -0.54585938 3.51179688 -0.73046875 2.77734375 C-0.81941406 2.19082031 -0.90835938 1.60429688 -1 1 C-0.67 0.67 -0.34 0.34 0 0 Z " fill="#161F12" transform="translate(100,32)"/>
<path d="M0 0 C0.99 0.33 1.98 0.66 3 1 C2.34 3.64 1.68 6.28 1 9 C0.34 8.34 -0.32 7.68 -1 7 C-0.625 3.375 -0.625 3.375 0 0 Z " fill="#1E2A1E" transform="translate(310,88)"/>
<path d="M0 0 C0.66 0 1.32 0 2 0 C3.14229879 3.42689636 2.90861076 5.61102218 2.5625 9.1875 C2.40974609 10.81751953 2.40974609 10.81751953 2.25390625 12.48046875 C2.17011719 13.31191406 2.08632812 14.14335938 2 15 C1.67 15 1.34 15 1 15 C0.67 10.05 0.34 5.1 0 0 Z " fill="#111310" transform="translate(122,29)"/>
<path d="M0 0 C1.32 1.32 2.64 2.64 4 4 C3.67 4.99 3.34 5.98 3 7 C1.35 5.02 -0.3 3.04 -2 1 C-1.34 0.67 -0.68 0.34 0 0 Z " fill="#292D28" transform="translate(301,58)"/>
<path d="M0 0 C0.66 0.66 1.32 1.32 2 2 C0.02 4.97 0.02 4.97 -2 8 C-2.66 7.67 -3.32 7.34 -4 7 C-2.68 4.69 -1.36 2.38 0 0 Z " fill="#1C231B" transform="translate(121,51)"/>
<path d="M0 0 C2.64 0.99 5.28 1.98 8 3 C7.01 3.66 6.02 4.32 5 5 C2.3125 4.125 2.3125 4.125 0 3 C0 2.01 0 1.02 0 0 Z " fill="#313F2D" transform="translate(99,5)"/>
</svg>
